<?xml version="1.0" encoding="UTF-8" standalone="no"?>
<!DOCTYPE svg PUBLIC "-//W3C//DTD SVG 1.1//EN"
 "http://www.w3.org/Graphics/SVG/1.1/DTD/svg11.dtd">
<!-- Generated by graphviz version 2.40.1 (20161225.0304)
 -->
<!-- Title: Elevator Pages: 1 -->
<svg width="240pt" height="212pt"
 viewBox="0.00 0.00 239.77 212.00" xmlns="http://www.w3.org/2000/svg" xmlns:xlink="http://www.w3.org/1999/xlink">
<g id="graph0" class="graph" transform="scale(1 1) rotate(0) translate(4 208)">
<title>Elevator</title>
<polygon fill="#ffffff" stroke="transparent" points="-4,4 -4,-208 235.7665,-208 235.7665,4 -4,4"/>
<!-- opened -->
<g id="node1" class="node">
<title>opened</title>
<path fill="none" stroke="#000000" d="M149.525,-204C149.525,-204 74.2136,-204 74.2136,-204 68.2136,-204 62.2136,-198 62.2136,-192 62.2136,-192 62.2136,-180 62.2136,-180 62.2136,-174 68.2136,-168 74.2136,-168 74.2136,-168 149.525,-168 149.525,-168 155.525,-168 161.525,-174 161.525,-180 161.525,-180 161.525,-192 161.525,-192 161.525,-198 155.525,-204 149.525,-204"/>
<text text-anchor="middle" x="111.8693" y="-182.7" font-family="arial" font-size="11.00" fill="#000000">Opened/Stopped</text>
</g>
<!-- closed -->
<g id="node2" class="node">
<title>closed</title>
<path fill="none" stroke="#000000" d="M147.1203,-120C147.1203,-120 76.6183,-120 76.6183,-120 70.6183,-120 64.6183,-114 64.6183,-108 64.6183,-108 64.6183,-96 64.6183,-96 64.6183,-90 70.6183,-84 76.6183,-84 76.6183,-84 147.1203,-84 147.1203,-84 153.1203,-84 159.1203,-90 159.1203,-96 159.1203,-96 159.1203,-108 159.1203,-108 159.1203,-114 153.1203,-120 147.1203,-120"/>
<text text-anchor="middle" x="111.8693" y="-98.7" font-family="arial" font-size="11.00" fill="#000000">Closed/Stopped</text>
</g>
<!-- opened&#45;&gt;closed -->
<g id="edge1" class="edge">
<title>opened&#45;&gt;closed</title>
<path fill="none" stroke="#000000" d="M111.8693,-157.501C111.8693,-148.7283 111.8693,-139.0761 111.8693,-130.3157"/>
<polygon fill="#000000" stroke="#000000" points="111.8693,-167.7733 107.3694,-157.7732 111.8693,-162.7733 111.8694,-157.7733 111.8694,-157.7733 111.8694,-157.7733 111.8693,-162.7733 116.3694,-157.7733 111.8693,-167.7733 111.8693,-167.7733"/>
<polygon fill="#000000" stroke="#000000" points="111.8693,-120.1912 116.3694,-130.1911 111.8693,-125.1912 111.8694,-130.1912 111.8694,-130.1912 111.8694,-130.1912 111.8693,-125.1912 107.3694,-130.1912 111.8693,-120.1912 111.8693,-120.1912"/>
<text text-anchor="middle" x="143.8228" y="-141" font-family="arial" font-size="10.00" fill="#000000"> &#160;Close / Open</text>
</g>
<!-- up -->
<g id="node3" class="node">
<title>up</title>
<path fill="none" stroke="#000000" d="M87.6082,-36C87.6082,-36 12.1304,-36 12.1304,-36 6.1304,-36 .1304,-30 .1304,-24 .1304,-24 .1304,-12 .1304,-12 .1304,-6 6.1304,0 12.1304,0 12.1304,0 87.6082,0 87.6082,0 93.6082,0 99.6082,-6 99.6082,-12 99.6082,-12 99.6082,-24 99.6082,-24 99.6082,-30 93.6082,-36 87.6082,-36"/>
<text text-anchor="middle" x="49.8693" y="-14.7" font-family="arial" font-size="11.00" fill="#000000">Closed/Going Up</text>
</g>
<!-- closed&#45;&gt;up -->
<g id="edge2" class="edge">
<title>closed&#45;&gt;up</title>
<path fill="none" stroke="#000000" d="M92.4754,-75.7244C85.1427,-65.7898 76.7975,-54.4834 69.448,-44.526"/>
<polygon fill="#000000" stroke="#000000" points="98.4162,-83.7733 88.8571,-78.3998 95.4469,-79.7504 92.4777,-75.7275 92.4777,-75.7275 92.4777,-75.7275 95.4469,-79.7504 96.0983,-73.0551 98.4162,-83.7733 98.4162,-83.7733"/>
<polygon fill="#000000" stroke="#000000" points="63.2961,-36.1912 72.8553,-41.5646 66.2654,-40.2141 69.2347,-44.2369 69.2347,-44.2369 69.2347,-44.2369 66.2654,-40.2141 65.6141,-46.9093 63.2961,-36.1912 63.2961,-36.1912"/>
<text text-anchor="middle" x="113.7683" y="-57" font-family="arial" font-size="10.00" fill="#000000">Go Up / Stop</text>
</g>
<!-- down -->
<g id="node4" class="node">
<title>down</title>
<path fill="none" stroke="#000000" d="M219.6639,-36C219.6639,-36 130.0747,-36 130.0747,-36 124.0747,-36 118.0747,-30 118.0747,-24 118.0747,-24 118.0747,-12 118.0747,-12 118.0747,-6 124.0747,0 130.0747,0 130.0747,0 219.6639,0 219.6639,0 225.6639,0 231.6639,-6 231.6639,-12 231.6639,-12 231.6639,-24 231.6639,-24 231.6639,-30 225.6639,-36 219.6639,-36"/>
<text text-anchor="middle" x="174.8693" y="-14.7" font-family="arial" font-size="11.00" fill="#000000">Closed/Going Down</text>
</g>
<!-- closed&#45;&gt;down -->
<g id="edge3" class="edge">
<title>closed&#45;&gt;down</title>
<path fill="none" stroke="#000000" d="M138.3544,-76.2241C141.3496,-72.8889 144.259,-69.4358 146.8693,-66 151.6842,-59.6623 156.3037,-52.4244 160.3536,-45.5247"/>
<polygon fill="#000000" stroke="#000000" points="131.31,-83.7288 134.8729,-73.3578 134.7319,-80.0832 138.1539,-76.4376 138.1539,-76.4376 138.1539,-76.4376 134.7319,-80.0832 141.435,-79.5174 131.31,-83.7288 131.31,-83.7288"/>
<polygon fill="#000000" stroke="#000000" points="165.4882,-36.442 164.4843,-47.3619 163.0276,-40.7947 160.567,-45.1473 160.567,-45.1473 160.567,-45.1473 163.0276,-40.7947 156.6496,-42.9328 165.4882,-36.442 165.4882,-36.442"/>
<text text-anchor="middle" x="189.1573" y="-57" font-family="arial" font-size="10.00" fill="#000000">Go Down / Stop</text>
</g>
</g>
</svg>
