<?xml version="1.0" encoding="UTF-8" standalone="no"?>
<!DOCTYPE svg PUBLIC "-//W3C//DTD SVG 1.1//EN"
 "http://www.w3.org/Graphics/SVG/1.1/DTD/svg11.dtd">
<!-- Generated by graphviz version 2.40.1 (20161225.0304)
 -->
<!-- Title: DataKinds Pages: 1 -->
<svg width="283pt" height="392pt"
 viewBox="0.00 0.00 283.19 392.20" xmlns="http://www.w3.org/2000/svg" xmlns:xlink="http://www.w3.org/1999/xlink">
<g id="graph0" class="graph" transform="scale(1 1) rotate(0) translate(4 388.2)">
<title>DataKinds</title>
<polygon fill="#ffffff" stroke="transparent" points="-4,4 -4,-388.2 279.1871,-388.2 279.1871,4 -4,4"/>
<text text-anchor="middle" x="137.5936" y="-31" font-family="monospace" font-size="10.00" fill="#000000">Diagram 2</text>
<text text-anchor="middle" x="137.5936" y="-19" font-family="monospace" font-size="10.00" fill="#000000">data DoorState = Opened | Closed</text>
<text text-anchor="middle" x="137.5936" y="-7" font-family="monospace" font-size="10.00" fill="#000000">data Door (a ∷ DoorState) where MkDoor ∷ Door a</text>
<!-- t -->
<g id="node1" class="node">
<title>t</title>
<path fill="none" stroke="#000000" d="M80.6208,-238.2C80.6208,-238.2 39.593,-238.2 39.593,-238.2 33.593,-238.2 27.593,-232.2 27.593,-226.2 27.593,-226.2 27.593,-214.2 27.593,-214.2 27.593,-208.2 33.593,-202.2 39.593,-202.2 39.593,-202.2 80.6208,-202.2 80.6208,-202.2 86.6208,-202.2 92.6208,-208.2 92.6208,-214.2 92.6208,-214.2 92.6208,-226.2 92.6208,-226.2 92.6208,-232.2 86.6208,-238.2 80.6208,-238.2"/>
<text text-anchor="middle" x="60.1069" y="-216.9" font-family="arial" font-size="11.00" fill="#000000">DoorState</text>
</g>
<!-- o -->
<g id="node2" class="node">
<title>o</title>
<ellipse fill="none" stroke="#000000" cx="34.1069" cy="-62" rx="34.2142" ry="18"/>
<text text-anchor="middle" x="34.1069" y="-58.7" font-family="arial" font-size="11.00" fill="#000000">Opened</text>
</g>
<!-- t&#45;&gt;o -->
<g id="edge1" class="edge">
<title>t&#45;&gt;o</title>
<path fill="none" stroke="#000000" d="M57.1244,-202.0524C52.6185,-174.6355 44.0384,-122.4294 38.7219,-90.0806"/>
<polygon fill="#000000" stroke="#000000" points="37.0547,-79.9359 43.1169,-89.0737 37.8656,-84.8697 38.6765,-89.8035 38.6765,-89.8035 38.6765,-89.8035 37.8656,-84.8697 34.2361,-90.5333 37.0547,-79.9359 37.0547,-79.9359"/>
</g>
<!-- c -->
<g id="node3" class="node">
<title>c</title>
<ellipse fill="none" stroke="#000000" cx="119.1069" cy="-62" rx="31.1452" ry="18"/>
<text text-anchor="middle" x="119.1069" y="-58.7" font-family="arial" font-size="11.00" fill="#000000">Closed</text>
</g>
<!-- t&#45;&gt;c -->
<g id="edge2" class="edge">
<title>t&#45;&gt;c</title>
<path fill="none" stroke="#000000" d="M66.875,-202.0524C77.1445,-174.5163 96.7395,-121.975 108.7913,-89.6598"/>
<polygon fill="#000000" stroke="#000000" points="112.4178,-79.9359 113.1397,-90.878 110.6706,-84.6207 108.9234,-89.3055 108.9234,-89.3055 108.9234,-89.3055 110.6706,-84.6207 104.7071,-87.733 112.4178,-79.9359 112.4178,-79.9359"/>
</g>
<!-- k -->
<g id="node4" class="node">
<title>k</title>
<polygon fill="none" stroke="#000000" points="176.6208,-238.2 111.593,-238.2 111.593,-202.2 176.6208,-202.2 176.6208,-238.2"/>
<text text-anchor="middle" x="144.1069" y="-216.9" font-family="arial" font-size="11.00" fill="#000000">DoorState</text>
</g>
<!-- to -->
<g id="node5" class="node">
<title>to</title>
<path fill="none" stroke="#000000" d="M162.6699,-165.2C162.6699,-165.2 129.544,-165.2 129.544,-165.2 123.544,-165.2 117.544,-159.2 117.544,-153.2 117.544,-153.2 117.544,-141.2 117.544,-141.2 117.544,-135.2 123.544,-129.2 129.544,-129.2 129.544,-129.2 162.6699,-129.2 162.6699,-129.2 168.6699,-129.2 174.6699,-135.2 174.6699,-141.2 174.6699,-141.2 174.6699,-153.2 174.6699,-153.2 174.6699,-159.2 168.6699,-165.2 162.6699,-165.2"/>
<text text-anchor="middle" x="146.1069" y="-143.9" font-family="arial" font-size="11.00" fill="#000000">&#39;Opened</text>
</g>
<!-- k&#45;&gt;to -->
<g id="edge3" class="edge">
<title>k&#45;&gt;to</title>
<path fill="none" stroke="#000000" d="M144.6013,-202.1551C144.8225,-194.0828 145.0884,-184.3764 145.3348,-175.3817"/>
<polygon fill="#000000" stroke="#000000" points="145.6113,-165.2904 149.8357,-175.4099 145.4743,-170.2885 145.3373,-175.2866 145.3373,-175.2866 145.3373,-175.2866 145.4743,-170.2885 140.839,-175.1633 145.6113,-165.2904 145.6113,-165.2904"/>
</g>
<!-- tc -->
<g id="node6" class="node">
<title>tc</title>
<path fill="none" stroke="#000000" d="M235.1069,-165.2C235.1069,-165.2 205.1069,-165.2 205.1069,-165.2 199.1069,-165.2 193.1069,-159.2 193.1069,-153.2 193.1069,-153.2 193.1069,-141.2 193.1069,-141.2 193.1069,-135.2 199.1069,-129.2 205.1069,-129.2 205.1069,-129.2 235.1069,-129.2 235.1069,-129.2 241.1069,-129.2 247.1069,-135.2 247.1069,-141.2 247.1069,-141.2 247.1069,-153.2 247.1069,-153.2 247.1069,-159.2 241.1069,-165.2 235.1069,-165.2"/>
<text text-anchor="middle" x="220.1069" y="-143.9" font-family="arial" font-size="11.00" fill="#000000">&#39;Closed</text>
</g>
<!-- k&#45;&gt;tc -->
<g id="edge4" class="edge">
<title>k&#45;&gt;tc</title>
<path fill="none" stroke="#000000" d="M162.8935,-202.1551C172.2109,-193.2054 183.6197,-182.247 193.7912,-172.4769"/>
<polygon fill="#000000" stroke="#000000" points="201.2731,-165.2904 197.1784,-175.4631 197.6671,-168.754 194.0611,-172.2177 194.0611,-172.2177 194.0611,-172.2177 197.6671,-168.754 190.9438,-168.9723 201.2731,-165.2904 201.2731,-165.2904"/>
</g>
<!-- to&#45;&gt;o -->
<g id="edge12" class="edge">
<title>to&#45;&gt;o</title>
<path fill="none" stroke="#ff0000" stroke-dasharray="1,5" d="M122.3546,-129.1313C101.9352,-113.5979 72.8383,-91.4635 53.72,-76.9199"/>
<text text-anchor="middle" x="102.2218" y="-101.3" font-family="arial" font-size="11.00" fill="#ff0000">??</text>
</g>
<!-- tc&#45;&gt;c -->
<g id="edge13" class="edge">
<title>tc&#45;&gt;c</title>
<path fill="none" stroke="#ff0000" stroke-dasharray="1,5" d="M198.6874,-129.1313C180.2735,-113.5979 154.0343,-91.4635 136.7937,-76.9199"/>
<text text-anchor="middle" x="181.2218" y="-101.3" font-family="arial" font-size="11.00" fill="#ff0000">??</text>
</g>
<!-- d -->
<g id="node7" class="node">
<title>d</title>
<path fill="none" stroke="#000000" stroke-width="2" d="M237.1069,-238.2C237.1069,-238.2 207.1069,-238.2 207.1069,-238.2 201.1069,-238.2 195.1069,-232.2 195.1069,-226.2 195.1069,-226.2 195.1069,-214.2 195.1069,-214.2 195.1069,-208.2 201.1069,-202.2 207.1069,-202.2 207.1069,-202.2 237.1069,-202.2 237.1069,-202.2 243.1069,-202.2 249.1069,-208.2 249.1069,-214.2 249.1069,-214.2 249.1069,-226.2 249.1069,-226.2 249.1069,-232.2 243.1069,-238.2 237.1069,-238.2"/>
<text text-anchor="middle" x="222.1069" y="-216.9" font-family="arial" font-size="11.00" fill="#000000">Door a</text>
</g>
<!-- d&#45;&gt;to -->
<g id="edge5" class="edge">
<title>d&#45;&gt;to</title>
<path fill="none" stroke="#000000" stroke-dasharray="5,2" d="M203.3204,-202.1551C194.003,-193.2054 182.5942,-182.247 172.4227,-172.4769"/>
<polygon fill="#000000" stroke="#000000" points="164.9407,-165.2904 175.27,-168.9723 168.5467,-168.754 172.1527,-172.2177 172.1527,-172.2177 172.1527,-172.2177 168.5467,-168.754 169.0354,-175.4631 164.9407,-165.2904 164.9407,-165.2904"/>
</g>
<!-- d&#45;&gt;tc -->
<g id="edge6" class="edge">
<title>d&#45;&gt;tc</title>
<path fill="none" stroke="#000000" stroke-dasharray="5,2" d="M221.6125,-202.1551C221.3914,-194.0828 221.1255,-184.3764 220.879,-175.3817"/>
<polygon fill="#000000" stroke="#000000" points="220.6026,-165.2904 225.3748,-175.1633 220.7395,-170.2885 220.8765,-175.2866 220.8765,-175.2866 220.8765,-175.2866 220.7395,-170.2885 216.3782,-175.4099 220.6026,-165.2904 220.6026,-165.2904"/>
</g>
<!-- Type -->
<g id="node8" class="node">
<title>Type</title>
<polygon fill="none" stroke="#000000" points="107.1069,-311.2 53.1069,-311.2 53.1069,-275.2 107.1069,-275.2 107.1069,-311.2"/>
<text text-anchor="middle" x="80.1069" y="-289.9" font-family="arial" font-size="11.00" fill="#000000">Type</text>
</g>
<!-- Type&#45;&gt;t -->
<g id="edge7" class="edge">
<title>Type&#45;&gt;t</title>
<path fill="none" stroke="#000000" d="M75.1631,-275.1551C72.9275,-266.9951 70.2344,-257.1652 67.7477,-248.0887"/>
<polygon fill="#000000" stroke="#000000" points="65.0632,-238.2904 72.0457,-246.7459 66.3844,-243.1127 67.7056,-247.9349 67.7056,-247.9349 67.7056,-247.9349 66.3844,-243.1127 63.3656,-249.124 65.0632,-238.2904 65.0632,-238.2904"/>
</g>
<!-- dk -->
<g id="node9" class="node">
<title>dk</title>
<polygon fill="none" stroke="#000000" points="275.2675,-311.2 168.9464,-311.2 168.9464,-275.2 275.2675,-275.2 275.2675,-311.2"/>
<text text-anchor="middle" x="222.1069" y="-289.9" font-family="arial" font-size="11.00" fill="#000000">DoorState &#45;&gt; Type</text>
</g>
<!-- dk&#45;&gt;d -->
<g id="edge8" class="edge">
<title>dk&#45;&gt;d</title>
<path fill="none" stroke="#000000" d="M222.1069,-275.1551C222.1069,-267.0828 222.1069,-257.3764 222.1069,-248.3817"/>
<polygon fill="#000000" stroke="#000000" points="222.1069,-238.2904 226.607,-248.2903 222.107,-243.2904 222.107,-248.2904 222.107,-248.2904 222.107,-248.2904 222.107,-243.2904 217.607,-248.2904 222.1069,-238.2904 222.1069,-238.2904"/>
</g>
<!-- kinds -->
<g id="node10" class="node">
<title>kinds</title>
<polygon fill="none" stroke="#000000" stroke-dasharray="1,5" points="168.1069,-384.2 114.1069,-384.2 114.1069,-348.2 168.1069,-348.2 168.1069,-384.2"/>
<text text-anchor="middle" x="141.1069" y="-362.9" font-family="arial" font-size="11.00" fill="#000000">kinds</text>
</g>
<!-- kinds&#45;&gt;k -->
<g id="edge10" class="edge">
<title>kinds&#45;&gt;k</title>
<path fill="none" stroke="#000000" stroke-dasharray="1,5" d="M141.4808,-348.0042C141.9928,-323.0868 142.9173,-278.0938 143.5216,-248.6877"/>
<polygon fill="#000000" stroke="#000000" points="143.7283,-238.6251 148.0219,-248.7155 143.6256,-243.6241 143.5228,-248.623 143.5228,-248.623 143.5228,-248.623 143.6256,-243.6241 139.0237,-248.5305 143.7283,-238.6251 143.7283,-238.6251"/>
</g>
<!-- kinds&#45;&gt;Type -->
<g id="edge9" class="edge">
<title>kinds&#45;&gt;Type</title>
<path fill="none" stroke="#000000" stroke-dasharray="1,5" d="M126.0283,-348.1551C118.6965,-339.3809 109.7512,-328.6759 101.7101,-319.053"/>
<polygon fill="#000000" stroke="#000000" points="95.2235,-311.2904 105.0889,-316.0785 98.4296,-315.1272 101.6357,-318.964 101.6357,-318.964 101.6357,-318.964 98.4296,-315.1272 98.1826,-321.8495 95.2235,-311.2904 95.2235,-311.2904"/>
</g>
<!-- kinds&#45;&gt;dk -->
<g id="edge11" class="edge">
<title>kinds&#45;&gt;dk</title>
<path fill="none" stroke="#000000" stroke-dasharray="1,5" d="M161.1294,-348.1551C171.1572,-339.1177 183.4578,-328.0319 194.3784,-318.1899"/>
<polygon fill="#000000" stroke="#000000" points="202.0341,-311.2904 197.6183,-321.3279 198.3199,-314.6377 194.6057,-317.9851 194.6057,-317.9851 194.6057,-317.9851 198.3199,-314.6377 191.593,-314.6423 202.0341,-311.2904 202.0341,-311.2904"/>
</g>
</g>
</svg>
