<?xml version="1.0" encoding="UTF-8" standalone="no"?>
<!DOCTYPE svg PUBLIC "-//W3C//DTD SVG 1.1//EN"
 "http://www.w3.org/Graphics/SVG/1.1/DTD/svg11.dtd">
<!-- Generated by graphviz version 2.40.1 (20161225.0304)
 -->
<!-- Title: DataKinds Pages: 1 -->
<svg width="450pt" height="474pt"
 viewBox="0.00 0.00 449.86 473.80" xmlns="http://www.w3.org/2000/svg" xmlns:xlink="http://www.w3.org/1999/xlink">
<g id="graph0" class="graph" transform="scale(1 1) rotate(0) translate(4 469.8)">
<title>DataKinds</title>
<polygon fill="#ffffff" stroke="transparent" points="-4,4 -4,-469.8 445.863,-469.8 445.863,4 -4,4"/>
<text text-anchor="middle" x="220.9315" y="-17.5" font-family="monaco" font-size="9.00" fill="#000000">$(singletons [d| data DoorState = Opened | Closed |])</text>
<text text-anchor="middle" x="220.9315" y="-6.7" font-family="monaco" font-size="9.00" fill="#000000">data Door (a ∷ DoorState) where MkDoor ∷ Sing a → Door a</text>
<!-- t -->
<g id="node1" class="node">
<title>t</title>
<path fill="none" stroke="#000000" d="M79.6208,-246.8C79.6208,-246.8 38.593,-246.8 38.593,-246.8 32.593,-246.8 26.593,-240.8 26.593,-234.8 26.593,-234.8 26.593,-222.8 26.593,-222.8 26.593,-216.8 32.593,-210.8 38.593,-210.8 38.593,-210.8 79.6208,-210.8 79.6208,-210.8 85.6208,-210.8 91.6208,-216.8 91.6208,-222.8 91.6208,-222.8 91.6208,-234.8 91.6208,-234.8 91.6208,-240.8 85.6208,-246.8 79.6208,-246.8"/>
<text text-anchor="middle" x="59.1069" y="-225.5" font-family="arial" font-size="11.00" fill="#000000">DoorState</text>
</g>
<!-- o -->
<g id="node2" class="node">
<title>o</title>
<ellipse fill="none" stroke="#000000" cx="34.1069" cy="-47.6" rx="34.2142" ry="18"/>
<text text-anchor="middle" x="34.1069" y="-44.3" font-family="arial" font-size="11.00" fill="#000000">Opened</text>
</g>
<!-- t&#45;&gt;o -->
<g id="edge1" class="edge">
<title>t&#45;&gt;o</title>
<path fill="none" stroke="#000000" d="M56.6184,-210.7634C52.257,-179.1515 43.2027,-113.526 38.004,-75.8457"/>
<polygon fill="#000000" stroke="#000000" points="36.5854,-65.5637 42.41,-74.8547 37.2688,-70.5167 37.9522,-75.4698 37.9522,-75.4698 37.9522,-75.4698 37.2688,-70.5167 33.4944,-76.0849 36.5854,-65.5637 36.5854,-65.5637"/>
</g>
<!-- c -->
<g id="node3" class="node">
<title>c</title>
<ellipse fill="none" stroke="#000000" cx="127.1069" cy="-47.6" rx="31.1452" ry="18"/>
<text text-anchor="middle" x="127.1069" y="-44.3" font-family="arial" font-size="11.00" fill="#000000">Closed</text>
</g>
<!-- t&#45;&gt;c -->
<g id="edge2" class="edge">
<title>t&#45;&gt;c</title>
<path fill="none" stroke="#000000" d="M65.8756,-210.7634C77.8204,-178.934 102.706,-112.6214 116.7974,-75.0719"/>
<polygon fill="#000000" stroke="#000000" points="120.4659,-65.2964 121.1654,-76.2399 118.7091,-69.9776 116.9523,-74.6588 116.9523,-74.6588 116.9523,-74.6588 118.7091,-69.9776 112.7392,-73.0777 120.4659,-65.2964 120.4659,-65.2964"/>
</g>
<!-- k -->
<g id="node4" class="node">
<title>k</title>
<polygon fill="none" stroke="#000000" points="441.6208,-319.8 376.593,-319.8 376.593,-283.8 441.6208,-283.8 441.6208,-319.8"/>
<text text-anchor="middle" x="409.1069" y="-298.5" font-family="arial" font-size="11.00" fill="#000000">DoorState</text>
</g>
<!-- to -->
<g id="node5" class="node">
<title>to</title>
<path fill="none" stroke="#000000" d="M351.6699,-246.8C351.6699,-246.8 318.544,-246.8 318.544,-246.8 312.544,-246.8 306.544,-240.8 306.544,-234.8 306.544,-234.8 306.544,-222.8 306.544,-222.8 306.544,-216.8 312.544,-210.8 318.544,-210.8 318.544,-210.8 351.6699,-210.8 351.6699,-210.8 357.6699,-210.8 363.6699,-216.8 363.6699,-222.8 363.6699,-222.8 363.6699,-234.8 363.6699,-234.8 363.6699,-240.8 357.6699,-246.8 351.6699,-246.8"/>
<text text-anchor="middle" x="335.1069" y="-225.5" font-family="arial" font-size="11.00" fill="#000000">&#39;Opened</text>
</g>
<!-- k&#45;&gt;to -->
<g id="edge3" class="edge">
<title>k&#45;&gt;to</title>
<path fill="none" stroke="#000000" d="M390.8148,-283.7551C381.7426,-274.8054 370.634,-263.847 360.7301,-254.0769"/>
<polygon fill="#000000" stroke="#000000" points="353.4451,-246.8904 363.7244,-250.7096 357.0046,-250.4018 360.5641,-253.9132 360.5641,-253.9132 360.5641,-253.9132 357.0046,-250.4018 357.4039,-257.1168 353.4451,-246.8904 353.4451,-246.8904"/>
</g>
<!-- tc -->
<g id="node6" class="node">
<title>tc</title>
<path fill="none" stroke="#000000" d="M424.1069,-246.8C424.1069,-246.8 394.1069,-246.8 394.1069,-246.8 388.1069,-246.8 382.1069,-240.8 382.1069,-234.8 382.1069,-234.8 382.1069,-222.8 382.1069,-222.8 382.1069,-216.8 388.1069,-210.8 394.1069,-210.8 394.1069,-210.8 424.1069,-210.8 424.1069,-210.8 430.1069,-210.8 436.1069,-216.8 436.1069,-222.8 436.1069,-222.8 436.1069,-234.8 436.1069,-234.8 436.1069,-240.8 430.1069,-246.8 424.1069,-246.8"/>
<text text-anchor="middle" x="409.1069" y="-225.5" font-family="arial" font-size="11.00" fill="#000000">&#39;Closed</text>
</g>
<!-- k&#45;&gt;tc -->
<g id="edge4" class="edge">
<title>k&#45;&gt;tc</title>
<path fill="none" stroke="#000000" d="M409.1069,-283.7551C409.1069,-275.6828 409.1069,-265.9764 409.1069,-256.9817"/>
<polygon fill="#000000" stroke="#000000" points="409.1069,-246.8904 413.607,-256.8903 409.107,-251.8904 409.107,-256.8904 409.107,-256.8904 409.107,-256.8904 409.107,-251.8904 404.607,-256.8904 409.1069,-246.8904 409.1069,-246.8904"/>
</g>
<!-- so -->
<g id="node14" class="node">
<title>so</title>
<ellipse fill="none" stroke="#0000ff" cx="183.1069" cy="-132.8" rx="38.7911" ry="18"/>
<text text-anchor="middle" x="183.1069" y="-129.5" font-family="arial" font-size="11.00" fill="#0000ff">SOpened</text>
</g>
<!-- to&#45;&gt;so -->
<g id="edge19" class="edge">
<title>to&#45;&gt;so</title>
<path fill="none" stroke="#0000ff" d="M297.9628,-205.3405C272.4046,-189.1985 238.8266,-167.9914 214.5842,-152.6804"/>
<polygon fill="#0000ff" stroke="#0000ff" points="306.5169,-210.7431 295.659,-209.2079 302.2894,-208.0731 298.062,-205.4032 298.062,-205.4032 298.062,-205.4032 302.2894,-208.0731 300.465,-201.5985 306.5169,-210.7431 306.5169,-210.7431"/>
<polygon fill="#0000ff" stroke="#0000ff" points="206.1073,-147.3266 216.9652,-148.8618 210.3348,-149.9965 214.5622,-152.6665 214.5622,-152.6665 214.5622,-152.6665 210.3348,-149.9965 212.1592,-156.4712 206.1073,-147.3266 206.1073,-147.3266"/>
</g>
<!-- sc -->
<g id="node15" class="node">
<title>sc</title>
<ellipse fill="none" stroke="#0000ff" cx="275.1069" cy="-132.8" rx="35.7221" ry="18"/>
<text text-anchor="middle" x="275.1069" y="-129.5" font-family="arial" font-size="11.00" fill="#0000ff">SClosed</text>
</g>
<!-- tc&#45;&gt;sc -->
<g id="edge20" class="edge">
<title>tc&#45;&gt;sc</title>
<path fill="none" stroke="#0000ff" d="M375.7558,-204.9066C353.7212,-189.1207 325.1286,-168.6364 304.0524,-153.537"/>
<polygon fill="#0000ff" stroke="#0000ff" points="383.9026,-210.7431 373.1527,-208.5774 379.838,-207.8312 375.7734,-204.9192 375.7734,-204.9192 375.7734,-204.9192 379.838,-207.8312 378.3942,-201.2611 383.9026,-210.7431 383.9026,-210.7431"/>
<polygon fill="#0000ff" stroke="#0000ff" points="295.8057,-147.629 306.5556,-149.7948 299.8703,-150.5409 303.9349,-153.4529 303.9349,-153.4529 303.9349,-153.4529 299.8703,-150.5409 301.3141,-157.111 295.8057,-147.629 295.8057,-147.629"/>
<text text-anchor="middle" x="396.5574" y="-183.8" font-family="arial" font-size="10.00" fill="#0000ff">type inference</text>
<text text-anchor="middle" x="396.5574" y="-171.8" font-family="arial" font-size="10.00" fill="#0000ff">(Sing a ↔ Door a)</text>
</g>
<!-- d -->
<g id="node7" class="node">
<title>d</title>
<path fill="none" stroke="#000000" stroke-width="2" d="M346.1069,-319.8C346.1069,-319.8 316.1069,-319.8 316.1069,-319.8 310.1069,-319.8 304.1069,-313.8 304.1069,-307.8 304.1069,-307.8 304.1069,-295.8 304.1069,-295.8 304.1069,-289.8 310.1069,-283.8 316.1069,-283.8 316.1069,-283.8 346.1069,-283.8 346.1069,-283.8 352.1069,-283.8 358.1069,-289.8 358.1069,-295.8 358.1069,-295.8 358.1069,-307.8 358.1069,-307.8 358.1069,-313.8 352.1069,-319.8 346.1069,-319.8"/>
<text text-anchor="middle" x="331.1069" y="-298.5" font-family="arial" font-size="11.00" fill="#000000">Door a</text>
</g>
<!-- d&#45;&gt;to -->
<g id="edge5" class="edge">
<title>d&#45;&gt;to</title>
<path fill="none" stroke="#000000" stroke-dasharray="5,2" d="M332.0957,-283.7551C332.538,-275.6828 333.0699,-265.9764 333.5627,-256.9817"/>
<polygon fill="#000000" stroke="#000000" points="334.1157,-246.8904 338.0617,-257.1216 333.8421,-251.8829 333.5685,-256.8754 333.5685,-256.8754 333.5685,-256.8754 333.8421,-251.8829 329.0752,-256.6291 334.1157,-246.8904 334.1157,-246.8904"/>
</g>
<!-- d&#45;&gt;tc -->
<g id="edge6" class="edge">
<title>d&#45;&gt;tc</title>
<path fill="none" stroke="#000000" stroke-dasharray="5,2" d="M350.3878,-283.7551C360.0442,-274.7177 371.8893,-263.6319 382.4054,-253.7899"/>
<polygon fill="#000000" stroke="#000000" points="389.7775,-246.8904 385.5512,-257.0091 386.1269,-250.307 382.4763,-253.7236 382.4763,-253.7236 382.4763,-253.7236 386.1269,-250.307 379.4013,-250.438 389.7775,-246.8904 389.7775,-246.8904"/>
</g>
<!-- Type -->
<g id="node8" class="node">
<title>Type</title>
<polygon fill="none" stroke="#000000" points="182.1069,-319.8 128.1069,-319.8 128.1069,-283.8 182.1069,-283.8 182.1069,-319.8"/>
<text text-anchor="middle" x="155.1069" y="-298.5" font-family="arial" font-size="11.00" fill="#000000">Type</text>
</g>
<!-- Type&#45;&gt;t -->
<g id="edge7" class="edge">
<title>Type&#45;&gt;t</title>
<path fill="none" stroke="#000000" d="M131.3766,-283.7551C119.2611,-274.5422 104.3461,-263.2006 91.2183,-253.218"/>
<polygon fill="#000000" stroke="#000000" points="82.897,-246.8904 93.5809,-249.3613 86.877,-249.9168 90.857,-252.9433 90.857,-252.9433 90.857,-252.9433 86.877,-249.9168 88.1332,-256.5254 82.897,-246.8904 82.897,-246.8904"/>
</g>
<!-- tso -->
<g id="node12" class="node">
<title>tso</title>
<path fill="none" stroke="#0000ff" d="M180.2326,-246.8C180.2326,-246.8 121.9813,-246.8 121.9813,-246.8 115.9813,-246.8 109.9813,-240.8 109.9813,-234.8 109.9813,-234.8 109.9813,-222.8 109.9813,-222.8 109.9813,-216.8 115.9813,-210.8 121.9813,-210.8 121.9813,-210.8 180.2326,-210.8 180.2326,-210.8 186.2326,-210.8 192.2326,-216.8 192.2326,-222.8 192.2326,-222.8 192.2326,-234.8 192.2326,-234.8 192.2326,-240.8 186.2326,-246.8 180.2326,-246.8"/>
<text text-anchor="middle" x="151.1069" y="-225.5" font-family="arial" font-size="11.00" fill="#0000ff">Sing &#39;Opened</text>
</g>
<!-- Type&#45;&gt;tso -->
<g id="edge17" class="edge">
<title>Type&#45;&gt;tso</title>
<path fill="none" stroke="#000000" d="M154.1182,-283.7551C153.6759,-275.6828 153.144,-265.9764 152.6511,-256.9817"/>
<polygon fill="#000000" stroke="#000000" points="152.0982,-246.8904 157.1387,-256.6291 152.3718,-251.8829 152.6454,-256.8754 152.6454,-256.8754 152.6454,-256.8754 152.3718,-251.8829 148.1521,-257.1216 152.0982,-246.8904 152.0982,-246.8904"/>
</g>
<!-- tsc -->
<g id="node13" class="node">
<title>tsc</title>
<path fill="none" stroke="#0000ff" d="M275.8273,-246.8C275.8273,-246.8 222.3865,-246.8 222.3865,-246.8 216.3865,-246.8 210.3865,-240.8 210.3865,-234.8 210.3865,-234.8 210.3865,-222.8 210.3865,-222.8 210.3865,-216.8 216.3865,-210.8 222.3865,-210.8 222.3865,-210.8 275.8273,-210.8 275.8273,-210.8 281.8273,-210.8 287.8273,-216.8 287.8273,-222.8 287.8273,-222.8 287.8273,-234.8 287.8273,-234.8 287.8273,-240.8 281.8273,-246.8 275.8273,-246.8"/>
<text text-anchor="middle" x="249.1069" y="-225.5" font-family="arial" font-size="11.00" fill="#0000ff">Sing &#39;Closed</text>
</g>
<!-- Type&#45;&gt;tsc -->
<g id="edge18" class="edge">
<title>Type&#45;&gt;tsc</title>
<path fill="none" stroke="#000000" d="M178.3429,-283.7551C190.206,-274.5422 204.8102,-263.2006 217.6645,-253.218"/>
<polygon fill="#000000" stroke="#000000" points="225.8125,-246.8904 220.6746,-256.5781 221.8635,-249.9572 217.9144,-253.024 217.9144,-253.024 217.9144,-253.024 221.8635,-249.9572 215.1543,-249.4699 225.8125,-246.8904 225.8125,-246.8904"/>
</g>
<!-- dk -->
<g id="node9" class="node">
<title>dk</title>
<polygon fill="none" stroke="#000000" points="325.8535,-392.8 220.3603,-392.8 220.3603,-356.8 325.8535,-356.8 325.8535,-392.8"/>
<text text-anchor="middle" x="273.1069" y="-371.5" font-family="arial" font-size="11.00" fill="#000000">DoorState → Type</text>
</g>
<!-- dk&#45;&gt;d -->
<g id="edge8" class="edge">
<title>dk&#45;&gt;d</title>
<path fill="none" stroke="#000000" d="M287.444,-356.7551C294.3455,-348.0686 302.7506,-337.4898 310.3366,-327.942"/>
<polygon fill="#000000" stroke="#000000" points="316.7338,-319.8904 314.0363,-330.5193 313.6234,-323.8052 310.513,-327.72 310.513,-327.72 310.513,-327.72 313.6234,-323.8052 306.9897,-324.9206 316.7338,-319.8904 316.7338,-319.8904"/>
</g>
<!-- ts -->
<g id="node11" class="node">
<title>ts</title>
<path fill="none" stroke="#0000ff" stroke-width="2" d="M274.1267,-319.8C274.1267,-319.8 216.0871,-319.8 216.0871,-319.8 210.0871,-319.8 204.0871,-313.8 204.0871,-307.8 204.0871,-307.8 204.0871,-295.8 204.0871,-295.8 204.0871,-289.8 210.0871,-283.8 216.0871,-283.8 216.0871,-283.8 274.1267,-283.8 274.1267,-283.8 280.1267,-283.8 286.1267,-289.8 286.1267,-295.8 286.1267,-295.8 286.1267,-307.8 286.1267,-307.8 286.1267,-313.8 280.1267,-319.8 274.1267,-319.8"/>
<text text-anchor="middle" x="245.1069" y="-298.5" font-family="arial" font-size="11.00" fill="#0000ff">SDoorState a</text>
</g>
<!-- dk&#45;&gt;ts -->
<g id="edge16" class="edge">
<title>dk&#45;&gt;ts</title>
<path fill="none" stroke="#000000" d="M266.1856,-356.7551C263.0221,-348.5074 259.2042,-338.5536 255.6918,-329.3962"/>
<polygon fill="#000000" stroke="#000000" points="252.0457,-319.8904 259.8285,-327.6155 253.8363,-324.5587 255.627,-329.2271 255.627,-329.2271 255.627,-329.2271 253.8363,-324.5587 251.4254,-330.8387 252.0457,-319.8904 252.0457,-319.8904"/>
</g>
<!-- kinds -->
<g id="node10" class="node">
<title>kinds</title>
<polygon fill="none" stroke="#000000" stroke-dasharray="1,5" points="300.1069,-465.8 246.1069,-465.8 246.1069,-429.8 300.1069,-429.8 300.1069,-465.8"/>
<text text-anchor="middle" x="273.1069" y="-444.5" font-family="arial" font-size="11.00" fill="#000000">kinds</text>
</g>
<!-- kinds&#45;&gt;k -->
<g id="edge10" class="edge">
<title>kinds&#45;&gt;k</title>
<path fill="none" stroke="#000000" stroke-dasharray="1,5" d="M295.1309,-429.7836C307.3498,-419.4201 322.5652,-405.8918 335.1069,-392.8 354.8963,-372.1427 375.2509,-346.7533 389.5909,-328.0462"/>
<polygon fill="#000000" stroke="#000000" points="395.7327,-319.9623 393.2662,-330.6473 392.7079,-323.9436 389.6831,-327.9249 389.6831,-327.9249 389.6831,-327.9249 392.7079,-323.9436 386.0999,-325.2026 395.7327,-319.9623 395.7327,-319.9623"/>
</g>
<!-- kinds&#45;&gt;Type -->
<g id="edge9" class="edge">
<title>kinds&#45;&gt;Type</title>
<path fill="none" stroke="#000000" stroke-dasharray="1,5" d="M249.5062,-429.6651C237.2441,-419.5807 222.4868,-406.3545 211.1069,-392.8 194.4746,-372.9893 179.3466,-347.7613 169.0188,-328.8951"/>
<polygon fill="#000000" stroke="#000000" points="164.2111,-319.9344 172.9043,-326.6187 166.5751,-324.3403 168.939,-328.7462 168.939,-328.7462 168.939,-328.7462 166.5751,-324.3403 164.9737,-330.8738 164.2111,-319.9344 164.2111,-319.9344"/>
</g>
<!-- kinds&#45;&gt;dk -->
<g id="edge11" class="edge">
<title>kinds&#45;&gt;dk</title>
<path fill="none" stroke="#000000" stroke-dasharray="1,5" d="M273.1069,-429.7551C273.1069,-421.6828 273.1069,-411.9764 273.1069,-402.9817"/>
<polygon fill="#000000" stroke="#000000" points="273.1069,-392.8904 277.607,-402.8903 273.107,-397.8904 273.107,-402.8904 273.107,-402.8904 273.107,-402.8904 273.107,-397.8904 268.607,-402.8904 273.1069,-392.8904 273.1069,-392.8904"/>
</g>
<!-- ts&#45;&gt;tso -->
<g id="edge12" class="edge">
<title>ts&#45;&gt;tso</title>
<path fill="none" stroke="#000000" stroke-dasharray="5,2" d="M221.871,-283.7551C210.0078,-274.5422 195.4036,-263.2006 182.5494,-253.218"/>
<polygon fill="#000000" stroke="#000000" points="174.4014,-246.8904 185.0596,-249.4699 178.3504,-249.9572 182.2994,-253.024 182.2994,-253.024 182.2994,-253.024 178.3504,-249.9572 179.5393,-256.5781 174.4014,-246.8904 174.4014,-246.8904"/>
</g>
<!-- ts&#45;&gt;tsc -->
<g id="edge13" class="edge">
<title>ts&#45;&gt;tsc</title>
<path fill="none" stroke="#000000" stroke-dasharray="5,2" d="M246.0957,-283.7551C246.538,-275.6828 247.0699,-265.9764 247.5627,-256.9817"/>
<polygon fill="#000000" stroke="#000000" points="248.1157,-246.8904 252.0617,-257.1216 247.8421,-251.8829 247.5685,-256.8754 247.5685,-256.8754 247.5685,-256.8754 247.8421,-251.8829 243.0752,-256.6291 248.1157,-246.8904 248.1157,-246.8904"/>
</g>
<!-- tso&#45;&gt;so -->
<g id="edge14" class="edge">
<title>tso&#45;&gt;so</title>
<path fill="none" stroke="#000000" d="M157.1259,-210.7431C161.8637,-196.5298 168.5455,-176.4843 173.9465,-160.2814"/>
<polygon fill="#000000" stroke="#000000" points="177.115,-150.7759 178.2217,-161.6858 175.5338,-155.5193 173.9526,-160.2627 173.9526,-160.2627 173.9526,-160.2627 175.5338,-155.5193 169.6835,-158.8397 177.115,-150.7759 177.115,-150.7759"/>
</g>
<!-- tsc&#45;&gt;sc -->
<g id="edge15" class="edge">
<title>tsc&#45;&gt;sc</title>
<path fill="none" stroke="#000000" d="M253.9973,-210.7431C257.8105,-196.6639 263.1735,-176.862 267.5396,-160.741"/>
<polygon fill="#000000" stroke="#000000" points="270.2385,-150.7759 271.9678,-161.6046 268.9313,-155.602 267.6242,-160.4282 267.6242,-160.4282 267.6242,-160.4282 268.9313,-155.602 263.2807,-159.2518 270.2385,-150.7759 270.2385,-150.7759"/>
</g>
<!-- so&#45;&gt;o -->
<g id="edge21" class="edge">
<title>so&#45;&gt;o</title>
<path fill="none" stroke="#0000ff" d="M149.8009,-113.7552C124.8473,-99.4865 90.9007,-80.0754 66.2361,-65.9719"/>
<polygon fill="#0000ff" stroke="#0000ff" points="158.5026,-118.731 147.5878,-117.6735 154.1621,-116.249 149.8216,-113.767 149.8216,-113.767 149.8216,-113.767 154.1621,-116.249 152.0554,-109.8605 158.5026,-118.731 158.5026,-118.731"/>
<polygon fill="#0000ff" stroke="#0000ff" points="57.2757,-60.8482 68.1905,-61.9057 61.6162,-63.3302 65.9568,-65.8122 65.9568,-65.8122 65.9568,-65.8122 61.6162,-63.3302 63.723,-69.7186 57.2757,-60.8482 57.2757,-60.8482"/>
<text text-anchor="middle" x="146.2224" y="-86.9" font-family="arial" font-size="11.00" fill="#0000ff">to/fromSing</text>
</g>
<!-- sc&#45;&gt;c -->
<g id="edge22" class="edge">
<title>sc&#45;&gt;c</title>
<path fill="none" stroke="#0000ff" d="M242.6042,-114.089C217.5378,-99.6588 183.0839,-79.8246 158.3416,-65.581"/>
<polygon fill="#0000ff" stroke="#0000ff" points="251.3282,-119.1111 240.4165,-118.0219 246.9949,-116.6166 242.6616,-114.122 242.6616,-114.122 242.6616,-114.122 246.9949,-116.6166 244.9067,-110.222 251.3282,-119.1111 251.3282,-119.1111"/>
<polygon fill="#0000ff" stroke="#0000ff" points="149.3741,-60.4187 160.2858,-61.5079 153.7074,-62.9133 158.0407,-65.4079 158.0407,-65.4079 158.0407,-65.4079 153.7074,-62.9133 155.7956,-69.3078 149.3741,-60.4187 149.3741,-60.4187"/>
</g>
</g>
</svg>
