<?xml version="1.0" encoding="UTF-8" standalone="no"?>
<!DOCTYPE svg PUBLIC "-//W3C//DTD SVG 1.1//EN"
 "http://www.w3.org/Graphics/SVG/1.1/DTD/svg11.dtd">
<!-- Generated by graphviz version 2.40.1 (20161225.0304)
 -->
<!-- Title: DataKinds Pages: 1 -->
<svg width="283pt" height="380pt"
 viewBox="0.00 0.00 283.19 380.20" xmlns="http://www.w3.org/2000/svg" xmlns:xlink="http://www.w3.org/1999/xlink">
<g id="graph0" class="graph" transform="scale(1 1) rotate(0) translate(4 376.2)">
<title>DataKinds</title>
<polygon fill="#ffffff" stroke="transparent" points="-4,4 -4,-376.2 279.1871,-376.2 279.1871,4 -4,4"/>
<text text-anchor="middle" x="137.5936" y="-19" font-family="monospace" font-size="10.00" fill="#000000">data DoorState = Opened | Closed</text>
<text text-anchor="middle" x="137.5936" y="-7" font-family="monospace" font-size="10.00" fill="#000000">data Door (a ∷ DoorState) where MkDoor ∷ Door a</text>
<!-- t -->
<g id="node1" class="node">
<title>t</title>
<path fill="none" stroke="#000000" d="M80.6208,-226.2C80.6208,-226.2 39.593,-226.2 39.593,-226.2 33.593,-226.2 27.593,-220.2 27.593,-214.2 27.593,-214.2 27.593,-202.2 27.593,-202.2 27.593,-196.2 33.593,-190.2 39.593,-190.2 39.593,-190.2 80.6208,-190.2 80.6208,-190.2 86.6208,-190.2 92.6208,-196.2 92.6208,-202.2 92.6208,-202.2 92.6208,-214.2 92.6208,-214.2 92.6208,-220.2 86.6208,-226.2 80.6208,-226.2"/>
<text text-anchor="middle" x="60.1069" y="-204.9" font-family="arial" font-size="11.00" fill="#000000">DoorState</text>
</g>
<!-- o -->
<g id="node2" class="node">
<title>o</title>
<ellipse fill="none" stroke="#000000" cx="34.1069" cy="-50" rx="34.2142" ry="18"/>
<text text-anchor="middle" x="34.1069" y="-46.7" font-family="arial" font-size="11.00" fill="#000000">Opened</text>
</g>
<!-- t&#45;&gt;o -->
<g id="edge1" class="edge">
<title>t&#45;&gt;o</title>
<path fill="none" stroke="#000000" d="M57.1244,-190.0524C52.6185,-162.6355 44.0384,-110.4294 38.7219,-78.0806"/>
<polygon fill="#000000" stroke="#000000" points="37.0547,-67.9359 43.1169,-77.0737 37.8656,-72.8697 38.6765,-77.8035 38.6765,-77.8035 38.6765,-77.8035 37.8656,-72.8697 34.2361,-78.5333 37.0547,-67.9359 37.0547,-67.9359"/>
</g>
<!-- c -->
<g id="node3" class="node">
<title>c</title>
<ellipse fill="none" stroke="#000000" cx="119.1069" cy="-50" rx="31.1452" ry="18"/>
<text text-anchor="middle" x="119.1069" y="-46.7" font-family="arial" font-size="11.00" fill="#000000">Closed</text>
</g>
<!-- t&#45;&gt;c -->
<g id="edge2" class="edge">
<title>t&#45;&gt;c</title>
<path fill="none" stroke="#000000" d="M66.875,-190.0524C77.1445,-162.5163 96.7395,-109.975 108.7913,-77.6598"/>
<polygon fill="#000000" stroke="#000000" points="112.4178,-67.9359 113.1397,-78.878 110.6706,-72.6207 108.9234,-77.3055 108.9234,-77.3055 108.9234,-77.3055 110.6706,-72.6207 104.7071,-75.733 112.4178,-67.9359 112.4178,-67.9359"/>
</g>
<!-- k -->
<g id="node4" class="node">
<title>k</title>
<polygon fill="none" stroke="#000000" points="176.6208,-226.2 111.593,-226.2 111.593,-190.2 176.6208,-190.2 176.6208,-226.2"/>
<text text-anchor="middle" x="144.1069" y="-204.9" font-family="arial" font-size="11.00" fill="#000000">DoorState</text>
</g>
<!-- to -->
<g id="node5" class="node">
<title>to</title>
<path fill="none" stroke="#000000" d="M162.6699,-153.2C162.6699,-153.2 129.544,-153.2 129.544,-153.2 123.544,-153.2 117.544,-147.2 117.544,-141.2 117.544,-141.2 117.544,-129.2 117.544,-129.2 117.544,-123.2 123.544,-117.2 129.544,-117.2 129.544,-117.2 162.6699,-117.2 162.6699,-117.2 168.6699,-117.2 174.6699,-123.2 174.6699,-129.2 174.6699,-129.2 174.6699,-141.2 174.6699,-141.2 174.6699,-147.2 168.6699,-153.2 162.6699,-153.2"/>
<text text-anchor="middle" x="146.1069" y="-131.9" font-family="arial" font-size="11.00" fill="#000000">&#39;Opened</text>
</g>
<!-- k&#45;&gt;to -->
<g id="edge3" class="edge">
<title>k&#45;&gt;to</title>
<path fill="none" stroke="#000000" d="M144.6013,-190.1551C144.8225,-182.0828 145.0884,-172.3764 145.3348,-163.3817"/>
<polygon fill="#000000" stroke="#000000" points="145.6113,-153.2904 149.8357,-163.4099 145.4743,-158.2885 145.3373,-163.2866 145.3373,-163.2866 145.3373,-163.2866 145.4743,-158.2885 140.839,-163.1633 145.6113,-153.2904 145.6113,-153.2904"/>
</g>
<!-- tc -->
<g id="node6" class="node">
<title>tc</title>
<path fill="none" stroke="#000000" d="M235.1069,-153.2C235.1069,-153.2 205.1069,-153.2 205.1069,-153.2 199.1069,-153.2 193.1069,-147.2 193.1069,-141.2 193.1069,-141.2 193.1069,-129.2 193.1069,-129.2 193.1069,-123.2 199.1069,-117.2 205.1069,-117.2 205.1069,-117.2 235.1069,-117.2 235.1069,-117.2 241.1069,-117.2 247.1069,-123.2 247.1069,-129.2 247.1069,-129.2 247.1069,-141.2 247.1069,-141.2 247.1069,-147.2 241.1069,-153.2 235.1069,-153.2"/>
<text text-anchor="middle" x="220.1069" y="-131.9" font-family="arial" font-size="11.00" fill="#000000">&#39;Closed</text>
</g>
<!-- k&#45;&gt;tc -->
<g id="edge4" class="edge">
<title>k&#45;&gt;tc</title>
<path fill="none" stroke="#000000" d="M162.8935,-190.1551C172.2109,-181.2054 183.6197,-170.247 193.7912,-160.4769"/>
<polygon fill="#000000" stroke="#000000" points="201.2731,-153.2904 197.1784,-163.4631 197.6671,-156.754 194.0611,-160.2177 194.0611,-160.2177 194.0611,-160.2177 197.6671,-156.754 190.9438,-156.9723 201.2731,-153.2904 201.2731,-153.2904"/>
</g>
<!-- to&#45;&gt;o -->
<g id="edge12" class="edge">
<title>to&#45;&gt;o</title>
<path fill="none" stroke="#ff0000" stroke-dasharray="1,5" d="M122.3546,-117.1313C101.9352,-101.5979 72.8383,-79.4635 53.72,-64.9199"/>
<text text-anchor="middle" x="102.2218" y="-89.3" font-family="arial" font-size="11.00" fill="#ff0000">??</text>
</g>
<!-- tc&#45;&gt;c -->
<g id="edge13" class="edge">
<title>tc&#45;&gt;c</title>
<path fill="none" stroke="#ff0000" stroke-dasharray="1,5" d="M198.6874,-117.1313C180.2735,-101.5979 154.0343,-79.4635 136.7937,-64.9199"/>
<text text-anchor="middle" x="181.2218" y="-89.3" font-family="arial" font-size="11.00" fill="#ff0000">??</text>
</g>
<!-- d -->
<g id="node7" class="node">
<title>d</title>
<path fill="none" stroke="#000000" stroke-width="2" d="M237.1069,-226.2C237.1069,-226.2 207.1069,-226.2 207.1069,-226.2 201.1069,-226.2 195.1069,-220.2 195.1069,-214.2 195.1069,-214.2 195.1069,-202.2 195.1069,-202.2 195.1069,-196.2 201.1069,-190.2 207.1069,-190.2 207.1069,-190.2 237.1069,-190.2 237.1069,-190.2 243.1069,-190.2 249.1069,-196.2 249.1069,-202.2 249.1069,-202.2 249.1069,-214.2 249.1069,-214.2 249.1069,-220.2 243.1069,-226.2 237.1069,-226.2"/>
<text text-anchor="middle" x="222.1069" y="-204.9" font-family="arial" font-size="11.00" fill="#000000">Door a</text>
</g>
<!-- d&#45;&gt;to -->
<g id="edge5" class="edge">
<title>d&#45;&gt;to</title>
<path fill="none" stroke="#000000" stroke-dasharray="5,2" d="M203.3204,-190.1551C194.003,-181.2054 182.5942,-170.247 172.4227,-160.4769"/>
<polygon fill="#000000" stroke="#000000" points="164.9407,-153.2904 175.27,-156.9723 168.5467,-156.754 172.1527,-160.2177 172.1527,-160.2177 172.1527,-160.2177 168.5467,-156.754 169.0354,-163.4631 164.9407,-153.2904 164.9407,-153.2904"/>
</g>
<!-- d&#45;&gt;tc -->
<g id="edge6" class="edge">
<title>d&#45;&gt;tc</title>
<path fill="none" stroke="#000000" stroke-dasharray="5,2" d="M221.6125,-190.1551C221.3914,-182.0828 221.1255,-172.3764 220.879,-163.3817"/>
<polygon fill="#000000" stroke="#000000" points="220.6026,-153.2904 225.3748,-163.1633 220.7395,-158.2885 220.8765,-163.2866 220.8765,-163.2866 220.8765,-163.2866 220.7395,-158.2885 216.3782,-163.4099 220.6026,-153.2904 220.6026,-153.2904"/>
</g>
<!-- Type -->
<g id="node8" class="node">
<title>Type</title>
<polygon fill="none" stroke="#000000" points="107.1069,-299.2 53.1069,-299.2 53.1069,-263.2 107.1069,-263.2 107.1069,-299.2"/>
<text text-anchor="middle" x="80.1069" y="-277.9" font-family="arial" font-size="11.00" fill="#000000">Type</text>
</g>
<!-- Type&#45;&gt;t -->
<g id="edge7" class="edge">
<title>Type&#45;&gt;t</title>
<path fill="none" stroke="#000000" d="M75.1631,-263.1551C72.9275,-254.9951 70.2344,-245.1652 67.7477,-236.0887"/>
<polygon fill="#000000" stroke="#000000" points="65.0632,-226.2904 72.0457,-234.7459 66.3844,-231.1127 67.7056,-235.9349 67.7056,-235.9349 67.7056,-235.9349 66.3844,-231.1127 63.3656,-237.124 65.0632,-226.2904 65.0632,-226.2904"/>
</g>
<!-- dk -->
<g id="node9" class="node">
<title>dk</title>
<polygon fill="none" stroke="#000000" points="275.2675,-299.2 168.9464,-299.2 168.9464,-263.2 275.2675,-263.2 275.2675,-299.2"/>
<text text-anchor="middle" x="222.1069" y="-277.9" font-family="arial" font-size="11.00" fill="#000000">DoorState &#45;&gt; Type</text>
</g>
<!-- dk&#45;&gt;d -->
<g id="edge8" class="edge">
<title>dk&#45;&gt;d</title>
<path fill="none" stroke="#000000" d="M222.1069,-263.1551C222.1069,-255.0828 222.1069,-245.3764 222.1069,-236.3817"/>
<polygon fill="#000000" stroke="#000000" points="222.1069,-226.2904 226.607,-236.2903 222.107,-231.2904 222.107,-236.2904 222.107,-236.2904 222.107,-236.2904 222.107,-231.2904 217.607,-236.2904 222.1069,-226.2904 222.1069,-226.2904"/>
</g>
<!-- kinds -->
<g id="node10" class="node">
<title>kinds</title>
<polygon fill="none" stroke="#000000" stroke-dasharray="1,5" points="168.1069,-372.2 114.1069,-372.2 114.1069,-336.2 168.1069,-336.2 168.1069,-372.2"/>
<text text-anchor="middle" x="141.1069" y="-350.9" font-family="arial" font-size="11.00" fill="#000000">kinds</text>
</g>
<!-- kinds&#45;&gt;k -->
<g id="edge10" class="edge">
<title>kinds&#45;&gt;k</title>
<path fill="none" stroke="#000000" stroke-dasharray="1,5" d="M141.4808,-336.0042C141.9928,-311.0868 142.9173,-266.0938 143.5216,-236.6877"/>
<polygon fill="#000000" stroke="#000000" points="143.7283,-226.6251 148.0219,-236.7155 143.6256,-231.6241 143.5228,-236.623 143.5228,-236.623 143.5228,-236.623 143.6256,-231.6241 139.0237,-236.5305 143.7283,-226.6251 143.7283,-226.6251"/>
</g>
<!-- kinds&#45;&gt;Type -->
<g id="edge9" class="edge">
<title>kinds&#45;&gt;Type</title>
<path fill="none" stroke="#000000" stroke-dasharray="1,5" d="M126.0283,-336.1551C118.6965,-327.3809 109.7512,-316.6759 101.7101,-307.053"/>
<polygon fill="#000000" stroke="#000000" points="95.2235,-299.2904 105.0889,-304.0785 98.4296,-303.1272 101.6357,-306.964 101.6357,-306.964 101.6357,-306.964 98.4296,-303.1272 98.1826,-309.8495 95.2235,-299.2904 95.2235,-299.2904"/>
</g>
<!-- kinds&#45;&gt;dk -->
<g id="edge11" class="edge">
<title>kinds&#45;&gt;dk</title>
<path fill="none" stroke="#000000" stroke-dasharray="1,5" d="M161.1294,-336.1551C171.1572,-327.1177 183.4578,-316.0319 194.3784,-306.1899"/>
<polygon fill="#000000" stroke="#000000" points="202.0341,-299.2904 197.6183,-309.3279 198.3199,-302.6377 194.6057,-305.9851 194.6057,-305.9851 194.6057,-305.9851 198.3199,-302.6377 191.593,-302.6423 202.0341,-299.2904 202.0341,-299.2904"/>
</g>
</g>
</svg>
