<?xml version="1.0" encoding="UTF-8" standalone="no"?>
<!DOCTYPE svg PUBLIC "-//W3C//DTD SVG 1.1//EN"
 "http://www.w3.org/Graphics/SVG/1.1/DTD/svg11.dtd">
<!-- Generated by graphviz version 2.40.1 (20161225.0304)
 -->
<!-- Title: DataKinds Pages: 1 -->
<svg width="283pt" height="378pt"
 viewBox="0.00 0.00 282.73 377.80" xmlns="http://www.w3.org/2000/svg" xmlns:xlink="http://www.w3.org/1999/xlink">
<g id="graph0" class="graph" transform="scale(1 1) rotate(0) translate(4 373.8)">
<title>DataKinds</title>
<polygon fill="#ffffff" stroke="transparent" points="-4,4 -4,-373.8 278.7301,-373.8 278.7301,4 -4,4"/>
<text text-anchor="middle" x="137.365" y="-17.5" font-family="monaco" font-size="9.00" fill="#000000">data DoorState = Opened | Closed</text>
<text text-anchor="middle" x="137.365" y="-6.7" font-family="monaco" font-size="9.00" fill="#000000">data Door (a ∷ DoorState) where MkDoor ∷ Door a</text>
<!-- t -->
<g id="node1" class="node">
<title>t</title>
<path fill="none" stroke="#000000" d="M80.6208,-223.8C80.6208,-223.8 39.593,-223.8 39.593,-223.8 33.593,-223.8 27.593,-217.8 27.593,-211.8 27.593,-211.8 27.593,-199.8 27.593,-199.8 27.593,-193.8 33.593,-187.8 39.593,-187.8 39.593,-187.8 80.6208,-187.8 80.6208,-187.8 86.6208,-187.8 92.6208,-193.8 92.6208,-199.8 92.6208,-199.8 92.6208,-211.8 92.6208,-211.8 92.6208,-217.8 86.6208,-223.8 80.6208,-223.8"/>
<text text-anchor="middle" x="60.1069" y="-202.5" font-family="arial" font-size="11.00" fill="#000000">DoorState</text>
</g>
<!-- o -->
<g id="node2" class="node">
<title>o</title>
<ellipse fill="none" stroke="#000000" cx="34.1069" cy="-47.6" rx="34.2142" ry="18"/>
<text text-anchor="middle" x="34.1069" y="-44.3" font-family="arial" font-size="11.00" fill="#000000">Opened</text>
</g>
<!-- t&#45;&gt;o -->
<g id="edge1" class="edge">
<title>t&#45;&gt;o</title>
<path fill="none" stroke="#000000" d="M57.1244,-187.6524C52.6185,-160.2355 44.0384,-108.0294 38.7219,-75.6806"/>
<polygon fill="#000000" stroke="#000000" points="37.0547,-65.5359 43.1169,-74.6737 37.8656,-70.4697 38.6765,-75.4035 38.6765,-75.4035 38.6765,-75.4035 37.8656,-70.4697 34.2361,-76.1333 37.0547,-65.5359 37.0547,-65.5359"/>
</g>
<!-- c -->
<g id="node3" class="node">
<title>c</title>
<ellipse fill="none" stroke="#000000" cx="119.1069" cy="-47.6" rx="31.1452" ry="18"/>
<text text-anchor="middle" x="119.1069" y="-44.3" font-family="arial" font-size="11.00" fill="#000000">Closed</text>
</g>
<!-- t&#45;&gt;c -->
<g id="edge2" class="edge">
<title>t&#45;&gt;c</title>
<path fill="none" stroke="#000000" d="M66.875,-187.6524C77.1445,-160.1163 96.7395,-107.575 108.7913,-75.2598"/>
<polygon fill="#000000" stroke="#000000" points="112.4178,-65.5359 113.1397,-76.478 110.6706,-70.2207 108.9234,-74.9055 108.9234,-74.9055 108.9234,-74.9055 110.6706,-70.2207 104.7071,-73.333 112.4178,-65.5359 112.4178,-65.5359"/>
</g>
<!-- k -->
<g id="node4" class="node">
<title>k</title>
<polygon fill="none" stroke="#000000" points="176.6208,-223.8 111.593,-223.8 111.593,-187.8 176.6208,-187.8 176.6208,-223.8"/>
<text text-anchor="middle" x="144.1069" y="-202.5" font-family="arial" font-size="11.00" fill="#000000">DoorState</text>
</g>
<!-- to -->
<g id="node5" class="node">
<title>to</title>
<path fill="none" stroke="#000000" d="M162.6699,-150.8C162.6699,-150.8 129.544,-150.8 129.544,-150.8 123.544,-150.8 117.544,-144.8 117.544,-138.8 117.544,-138.8 117.544,-126.8 117.544,-126.8 117.544,-120.8 123.544,-114.8 129.544,-114.8 129.544,-114.8 162.6699,-114.8 162.6699,-114.8 168.6699,-114.8 174.6699,-120.8 174.6699,-126.8 174.6699,-126.8 174.6699,-138.8 174.6699,-138.8 174.6699,-144.8 168.6699,-150.8 162.6699,-150.8"/>
<text text-anchor="middle" x="146.1069" y="-129.5" font-family="arial" font-size="11.00" fill="#000000">&#39;Opened</text>
</g>
<!-- k&#45;&gt;to -->
<g id="edge3" class="edge">
<title>k&#45;&gt;to</title>
<path fill="none" stroke="#000000" d="M144.6013,-187.7551C144.8225,-179.6828 145.0884,-169.9764 145.3348,-160.9817"/>
<polygon fill="#000000" stroke="#000000" points="145.6113,-150.8904 149.8357,-161.0099 145.4743,-155.8885 145.3373,-160.8866 145.3373,-160.8866 145.3373,-160.8866 145.4743,-155.8885 140.839,-160.7633 145.6113,-150.8904 145.6113,-150.8904"/>
</g>
<!-- tc -->
<g id="node6" class="node">
<title>tc</title>
<path fill="none" stroke="#000000" d="M235.1069,-150.8C235.1069,-150.8 205.1069,-150.8 205.1069,-150.8 199.1069,-150.8 193.1069,-144.8 193.1069,-138.8 193.1069,-138.8 193.1069,-126.8 193.1069,-126.8 193.1069,-120.8 199.1069,-114.8 205.1069,-114.8 205.1069,-114.8 235.1069,-114.8 235.1069,-114.8 241.1069,-114.8 247.1069,-120.8 247.1069,-126.8 247.1069,-126.8 247.1069,-138.8 247.1069,-138.8 247.1069,-144.8 241.1069,-150.8 235.1069,-150.8"/>
<text text-anchor="middle" x="220.1069" y="-129.5" font-family="arial" font-size="11.00" fill="#000000">&#39;Closed</text>
</g>
<!-- k&#45;&gt;tc -->
<g id="edge4" class="edge">
<title>k&#45;&gt;tc</title>
<path fill="none" stroke="#000000" d="M162.8935,-187.7551C172.2109,-178.8054 183.6197,-167.847 193.7912,-158.0769"/>
<polygon fill="#000000" stroke="#000000" points="201.2731,-150.8904 197.1784,-161.0631 197.6671,-154.354 194.0611,-157.8177 194.0611,-157.8177 194.0611,-157.8177 197.6671,-154.354 190.9438,-154.5723 201.2731,-150.8904 201.2731,-150.8904"/>
</g>
<!-- to&#45;&gt;o -->
<g id="edge12" class="edge">
<title>to&#45;&gt;o</title>
<path fill="none" stroke="#ff0000" stroke-dasharray="1,5" d="M122.3546,-114.7313C101.9352,-99.1979 72.8383,-77.0635 53.72,-62.5199"/>
<text text-anchor="middle" x="102.2218" y="-86.9" font-family="arial" font-size="11.00" fill="#ff0000">??</text>
</g>
<!-- tc&#45;&gt;c -->
<g id="edge13" class="edge">
<title>tc&#45;&gt;c</title>
<path fill="none" stroke="#ff0000" stroke-dasharray="1,5" d="M198.6874,-114.7313C180.2735,-99.1979 154.0343,-77.0635 136.7937,-62.5199"/>
<text text-anchor="middle" x="181.2218" y="-86.9" font-family="arial" font-size="11.00" fill="#ff0000">??</text>
</g>
<!-- d -->
<g id="node7" class="node">
<title>d</title>
<path fill="none" stroke="#000000" stroke-width="2" d="M237.1069,-223.8C237.1069,-223.8 207.1069,-223.8 207.1069,-223.8 201.1069,-223.8 195.1069,-217.8 195.1069,-211.8 195.1069,-211.8 195.1069,-199.8 195.1069,-199.8 195.1069,-193.8 201.1069,-187.8 207.1069,-187.8 207.1069,-187.8 237.1069,-187.8 237.1069,-187.8 243.1069,-187.8 249.1069,-193.8 249.1069,-199.8 249.1069,-199.8 249.1069,-211.8 249.1069,-211.8 249.1069,-217.8 243.1069,-223.8 237.1069,-223.8"/>
<text text-anchor="middle" x="222.1069" y="-202.5" font-family="arial" font-size="11.00" fill="#000000">Door a</text>
</g>
<!-- d&#45;&gt;to -->
<g id="edge5" class="edge">
<title>d&#45;&gt;to</title>
<path fill="none" stroke="#000000" stroke-dasharray="5,2" d="M203.3204,-187.7551C194.003,-178.8054 182.5942,-167.847 172.4227,-158.0769"/>
<polygon fill="#000000" stroke="#000000" points="164.9407,-150.8904 175.27,-154.5723 168.5467,-154.354 172.1527,-157.8177 172.1527,-157.8177 172.1527,-157.8177 168.5467,-154.354 169.0354,-161.0631 164.9407,-150.8904 164.9407,-150.8904"/>
</g>
<!-- d&#45;&gt;tc -->
<g id="edge6" class="edge">
<title>d&#45;&gt;tc</title>
<path fill="none" stroke="#000000" stroke-dasharray="5,2" d="M221.6125,-187.7551C221.3914,-179.6828 221.1255,-169.9764 220.879,-160.9817"/>
<polygon fill="#000000" stroke="#000000" points="220.6026,-150.8904 225.3748,-160.7633 220.7395,-155.8885 220.8765,-160.8866 220.8765,-160.8866 220.8765,-160.8866 220.7395,-155.8885 216.3782,-161.0099 220.6026,-150.8904 220.6026,-150.8904"/>
</g>
<!-- Type -->
<g id="node8" class="node">
<title>Type</title>
<polygon fill="none" stroke="#000000" points="107.1069,-296.8 53.1069,-296.8 53.1069,-260.8 107.1069,-260.8 107.1069,-296.8"/>
<text text-anchor="middle" x="80.1069" y="-275.5" font-family="arial" font-size="11.00" fill="#000000">Type</text>
</g>
<!-- Type&#45;&gt;t -->
<g id="edge7" class="edge">
<title>Type&#45;&gt;t</title>
<path fill="none" stroke="#000000" d="M75.1631,-260.7551C72.9275,-252.5951 70.2344,-242.7652 67.7477,-233.6887"/>
<polygon fill="#000000" stroke="#000000" points="65.0632,-223.8904 72.0457,-232.3459 66.3844,-228.7127 67.7056,-233.5349 67.7056,-233.5349 67.7056,-233.5349 66.3844,-228.7127 63.3656,-234.724 65.0632,-223.8904 65.0632,-223.8904"/>
</g>
<!-- dk -->
<g id="node9" class="node">
<title>dk</title>
<polygon fill="none" stroke="#000000" points="274.8535,-296.8 169.3603,-296.8 169.3603,-260.8 274.8535,-260.8 274.8535,-296.8"/>
<text text-anchor="middle" x="222.1069" y="-275.5" font-family="arial" font-size="11.00" fill="#000000">DoorState → Type</text>
</g>
<!-- dk&#45;&gt;d -->
<g id="edge8" class="edge">
<title>dk&#45;&gt;d</title>
<path fill="none" stroke="#000000" d="M222.1069,-260.7551C222.1069,-252.6828 222.1069,-242.9764 222.1069,-233.9817"/>
<polygon fill="#000000" stroke="#000000" points="222.1069,-223.8904 226.607,-233.8903 222.107,-228.8904 222.107,-233.8904 222.107,-233.8904 222.107,-233.8904 222.107,-228.8904 217.607,-233.8904 222.1069,-223.8904 222.1069,-223.8904"/>
</g>
<!-- kinds -->
<g id="node10" class="node">
<title>kinds</title>
<polygon fill="none" stroke="#000000" stroke-dasharray="1,5" points="168.1069,-369.8 114.1069,-369.8 114.1069,-333.8 168.1069,-333.8 168.1069,-369.8"/>
<text text-anchor="middle" x="141.1069" y="-348.5" font-family="arial" font-size="11.00" fill="#000000">kinds</text>
</g>
<!-- kinds&#45;&gt;k -->
<g id="edge10" class="edge">
<title>kinds&#45;&gt;k</title>
<path fill="none" stroke="#000000" stroke-dasharray="1,5" d="M141.4808,-333.6042C141.9928,-308.6868 142.9173,-263.6938 143.5216,-234.2877"/>
<polygon fill="#000000" stroke="#000000" points="143.7283,-224.2251 148.0219,-234.3155 143.6256,-229.2241 143.5228,-234.223 143.5228,-234.223 143.5228,-234.223 143.6256,-229.2241 139.0237,-234.1305 143.7283,-224.2251 143.7283,-224.2251"/>
</g>
<!-- kinds&#45;&gt;Type -->
<g id="edge9" class="edge">
<title>kinds&#45;&gt;Type</title>
<path fill="none" stroke="#000000" stroke-dasharray="1,5" d="M126.0283,-333.7551C118.6965,-324.9809 109.7512,-314.2759 101.7101,-304.653"/>
<polygon fill="#000000" stroke="#000000" points="95.2235,-296.8904 105.0889,-301.6785 98.4296,-300.7272 101.6357,-304.564 101.6357,-304.564 101.6357,-304.564 98.4296,-300.7272 98.1826,-307.4495 95.2235,-296.8904 95.2235,-296.8904"/>
</g>
<!-- kinds&#45;&gt;dk -->
<g id="edge11" class="edge">
<title>kinds&#45;&gt;dk</title>
<path fill="none" stroke="#000000" stroke-dasharray="1,5" d="M161.1294,-333.7551C171.1572,-324.7177 183.4578,-313.6319 194.3784,-303.7899"/>
<polygon fill="#000000" stroke="#000000" points="202.0341,-296.8904 197.6183,-306.9279 198.3199,-300.2377 194.6057,-303.5851 194.6057,-303.5851 194.6057,-303.5851 198.3199,-300.2377 191.593,-300.2423 202.0341,-296.8904 202.0341,-296.8904"/>
</g>
</g>
</svg>
