<?xml version="1.0" encoding="UTF-8" standalone="no"?>
<!DOCTYPE svg PUBLIC "-//W3C//DTD SVG 1.1//EN"
 "http://www.w3.org/Graphics/SVG/1.1/DTD/svg11.dtd">
<!-- Generated by graphviz version 2.40.1 (20161225.0304)
 -->
<!-- Title: DataKinds Pages: 1 -->
<svg width="459pt" height="479pt"
 viewBox="0.00 0.00 459.24 478.60" xmlns="http://www.w3.org/2000/svg" xmlns:xlink="http://www.w3.org/1999/xlink">
<g id="graph0" class="graph" transform="scale(1 1) rotate(0) translate(4 474.6)">
<title>DataKinds</title>
<polygon fill="#ffffff" stroke="transparent" points="-4,4 -4,-474.6 455.235,-474.6 455.235,4 -4,4"/>
<text text-anchor="middle" x="225.6175" y="-19" font-family="monospace" font-size="10.00" fill="#000000">$(singletons [d| data DoorState = Opened | Closed |])</text>
<text text-anchor="middle" x="225.6175" y="-7" font-family="monospace" font-size="10.00" fill="#000000">data Door (a :: DoorState) where MkDoor :: Sing a &#45;&gt; Door a</text>
<!-- t -->
<g id="node1" class="node">
<title>t</title>
<path fill="none" stroke="#000000" d="M79.6208,-251.6C79.6208,-251.6 38.593,-251.6 38.593,-251.6 32.593,-251.6 26.593,-245.6 26.593,-239.6 26.593,-239.6 26.593,-227.6 26.593,-227.6 26.593,-221.6 32.593,-215.6 38.593,-215.6 38.593,-215.6 79.6208,-215.6 79.6208,-215.6 85.6208,-215.6 91.6208,-221.6 91.6208,-227.6 91.6208,-227.6 91.6208,-239.6 91.6208,-239.6 91.6208,-245.6 85.6208,-251.6 79.6208,-251.6"/>
<text text-anchor="middle" x="59.1069" y="-230.3" font-family="arial" font-size="11.00" fill="#000000">DoorState</text>
</g>
<!-- o -->
<g id="node2" class="node">
<title>o</title>
<ellipse fill="none" stroke="#000000" cx="34.1069" cy="-50" rx="34.2142" ry="18"/>
<text text-anchor="middle" x="34.1069" y="-46.7" font-family="arial" font-size="11.00" fill="#000000">Opened</text>
</g>
<!-- t&#45;&gt;o -->
<g id="edge1" class="edge">
<title>t&#45;&gt;o</title>
<path fill="none" stroke="#000000" d="M56.6184,-215.3245C52.2383,-183.1564 43.1249,-116.2278 37.9372,-78.1298"/>
<polygon fill="#000000" stroke="#000000" points="36.5854,-68.2016 42.3935,-77.503 37.26,-73.1559 37.9347,-78.1102 37.9347,-78.1102 37.9347,-78.1102 37.26,-73.1559 33.4758,-78.7173 36.5854,-68.2016 36.5854,-68.2016"/>
</g>
<!-- c -->
<g id="node3" class="node">
<title>c</title>
<ellipse fill="none" stroke="#000000" cx="127.1069" cy="-50" rx="31.1452" ry="18"/>
<text text-anchor="middle" x="127.1069" y="-46.7" font-family="arial" font-size="11.00" fill="#000000">Closed</text>
</g>
<!-- t&#45;&gt;c -->
<g id="edge2" class="edge">
<title>t&#45;&gt;c</title>
<path fill="none" stroke="#000000" d="M65.8756,-215.3245C77.9023,-182.8524 103.0478,-114.9597 117.0856,-77.0575"/>
<polygon fill="#000000" stroke="#000000" points="120.5656,-67.6616 121.3123,-78.602 118.829,-72.3504 117.0924,-77.0391 117.0924,-77.0391 117.0924,-77.0391 118.829,-72.3504 112.8725,-75.4762 120.5656,-67.6616 120.5656,-67.6616"/>
</g>
<!-- k -->
<g id="node4" class="node">
<title>k</title>
<polygon fill="none" stroke="#000000" points="441.6208,-324.6 376.593,-324.6 376.593,-288.6 441.6208,-288.6 441.6208,-324.6"/>
<text text-anchor="middle" x="409.1069" y="-303.3" font-family="arial" font-size="11.00" fill="#000000">DoorState</text>
</g>
<!-- to -->
<g id="node5" class="node">
<title>to</title>
<path fill="none" stroke="#000000" d="M351.6699,-251.6C351.6699,-251.6 318.544,-251.6 318.544,-251.6 312.544,-251.6 306.544,-245.6 306.544,-239.6 306.544,-239.6 306.544,-227.6 306.544,-227.6 306.544,-221.6 312.544,-215.6 318.544,-215.6 318.544,-215.6 351.6699,-215.6 351.6699,-215.6 357.6699,-215.6 363.6699,-221.6 363.6699,-227.6 363.6699,-227.6 363.6699,-239.6 363.6699,-239.6 363.6699,-245.6 357.6699,-251.6 351.6699,-251.6"/>
<text text-anchor="middle" x="335.1069" y="-230.3" font-family="arial" font-size="11.00" fill="#000000">&#39;Opened</text>
</g>
<!-- k&#45;&gt;to -->
<g id="edge3" class="edge">
<title>k&#45;&gt;to</title>
<path fill="none" stroke="#000000" d="M390.8148,-288.5551C381.7426,-279.6054 370.634,-268.647 360.7301,-258.8769"/>
<polygon fill="#000000" stroke="#000000" points="353.4451,-251.6904 363.7244,-255.5096 357.0046,-255.2018 360.5641,-258.7132 360.5641,-258.7132 360.5641,-258.7132 357.0046,-255.2018 357.4039,-261.9168 353.4451,-251.6904 353.4451,-251.6904"/>
</g>
<!-- tc -->
<g id="node6" class="node">
<title>tc</title>
<path fill="none" stroke="#000000" d="M424.1069,-251.6C424.1069,-251.6 394.1069,-251.6 394.1069,-251.6 388.1069,-251.6 382.1069,-245.6 382.1069,-239.6 382.1069,-239.6 382.1069,-227.6 382.1069,-227.6 382.1069,-221.6 388.1069,-215.6 394.1069,-215.6 394.1069,-215.6 424.1069,-215.6 424.1069,-215.6 430.1069,-215.6 436.1069,-221.6 436.1069,-227.6 436.1069,-227.6 436.1069,-239.6 436.1069,-239.6 436.1069,-245.6 430.1069,-251.6 424.1069,-251.6"/>
<text text-anchor="middle" x="409.1069" y="-230.3" font-family="arial" font-size="11.00" fill="#000000">&#39;Closed</text>
</g>
<!-- k&#45;&gt;tc -->
<g id="edge4" class="edge">
<title>k&#45;&gt;tc</title>
<path fill="none" stroke="#000000" d="M409.1069,-288.5551C409.1069,-280.4828 409.1069,-270.7764 409.1069,-261.7817"/>
<polygon fill="#000000" stroke="#000000" points="409.1069,-251.6904 413.607,-261.6903 409.107,-256.6904 409.107,-261.6904 409.107,-261.6904 409.107,-261.6904 409.107,-256.6904 404.607,-261.6904 409.1069,-251.6904 409.1069,-251.6904"/>
</g>
<!-- so -->
<g id="node14" class="node">
<title>so</title>
<ellipse fill="none" stroke="#0000ff" cx="183.1069" cy="-135.2" rx="38.7911" ry="18"/>
<text text-anchor="middle" x="183.1069" y="-131.9" font-family="arial" font-size="11.00" fill="#0000ff">SOpened</text>
</g>
<!-- to&#45;&gt;so -->
<g id="edge19" class="edge">
<title>to&#45;&gt;so</title>
<path fill="none" stroke="#0000ff" d="M298.6376,-209.9909C272.9338,-193.3511 238.8703,-171.2994 214.4005,-155.4584"/>
<polygon fill="#0000ff" stroke="#0000ff" points="307.2278,-215.5519 296.3878,-213.8951 303.0305,-212.8347 298.8333,-210.1175 298.8333,-210.1175 298.8333,-210.1175 303.0305,-212.8347 301.2787,-206.34 307.2278,-215.5519 307.2278,-215.5519"/>
<polygon fill="#0000ff" stroke="#0000ff" points="205.8526,-149.9248 216.6926,-151.5817 210.0499,-152.642 214.2471,-155.3592 214.2471,-155.3592 214.2471,-155.3592 210.0499,-152.642 211.8017,-159.1368 205.8526,-149.9248 205.8526,-149.9248"/>
</g>
<!-- sc -->
<g id="node15" class="node">
<title>sc</title>
<ellipse fill="none" stroke="#0000ff" cx="275.1069" cy="-135.2" rx="35.7221" ry="18"/>
<text text-anchor="middle" x="275.1069" y="-131.9" font-family="arial" font-size="11.00" fill="#0000ff">SClosed</text>
</g>
<!-- tc&#45;&gt;sc -->
<g id="edge20" class="edge">
<title>tc&#45;&gt;sc</title>
<path fill="none" stroke="#0000ff" d="M376.3469,-209.5434C354.1814,-193.2666 325.1786,-171.969 303.8992,-156.343"/>
<polygon fill="#0000ff" stroke="#0000ff" points="384.5293,-215.5519 373.8055,-213.2601 380.4991,-212.5925 376.469,-209.633 376.469,-209.633 376.469,-209.633 380.4991,-212.5925 379.1325,-206.0059 384.5293,-215.5519 384.5293,-215.5519"/>
<polygon fill="#0000ff" stroke="#0000ff" points="295.5817,-150.2352 306.3054,-152.527 299.6118,-153.1946 303.6419,-156.1541 303.6419,-156.1541 303.6419,-156.1541 299.6118,-153.1946 300.9784,-159.7812 295.5817,-150.2352 295.5817,-150.2352"/>
<text text-anchor="middle" x="404.171" y="-187.7" font-family="arial" font-size="11.00" fill="#0000ff">type inference</text>
<text text-anchor="middle" x="404.171" y="-174.5" font-family="arial" font-size="11.00" fill="#0000ff">(Sing a &lt;&#45;&gt; Door a)</text>
</g>
<!-- d -->
<g id="node7" class="node">
<title>d</title>
<path fill="none" stroke="#000000" stroke-width="2" d="M346.1069,-324.6C346.1069,-324.6 316.1069,-324.6 316.1069,-324.6 310.1069,-324.6 304.1069,-318.6 304.1069,-312.6 304.1069,-312.6 304.1069,-300.6 304.1069,-300.6 304.1069,-294.6 310.1069,-288.6 316.1069,-288.6 316.1069,-288.6 346.1069,-288.6 346.1069,-288.6 352.1069,-288.6 358.1069,-294.6 358.1069,-300.6 358.1069,-300.6 358.1069,-312.6 358.1069,-312.6 358.1069,-318.6 352.1069,-324.6 346.1069,-324.6"/>
<text text-anchor="middle" x="331.1069" y="-303.3" font-family="arial" font-size="11.00" fill="#000000">Door a</text>
</g>
<!-- d&#45;&gt;to -->
<g id="edge5" class="edge">
<title>d&#45;&gt;to</title>
<path fill="none" stroke="#000000" stroke-dasharray="5,2" d="M332.0957,-288.5551C332.538,-280.4828 333.0699,-270.7764 333.5627,-261.7817"/>
<polygon fill="#000000" stroke="#000000" points="334.1157,-251.6904 338.0617,-261.9216 333.8421,-256.6829 333.5685,-261.6754 333.5685,-261.6754 333.5685,-261.6754 333.8421,-256.6829 329.0752,-261.4291 334.1157,-251.6904 334.1157,-251.6904"/>
</g>
<!-- d&#45;&gt;tc -->
<g id="edge6" class="edge">
<title>d&#45;&gt;tc</title>
<path fill="none" stroke="#000000" stroke-dasharray="5,2" d="M350.3878,-288.5551C360.0442,-279.5177 371.8893,-268.4319 382.4054,-258.5899"/>
<polygon fill="#000000" stroke="#000000" points="389.7775,-251.6904 385.5512,-261.8091 386.1269,-255.107 382.4763,-258.5236 382.4763,-258.5236 382.4763,-258.5236 386.1269,-255.107 379.4013,-255.238 389.7775,-251.6904 389.7775,-251.6904"/>
</g>
<!-- Type -->
<g id="node8" class="node">
<title>Type</title>
<polygon fill="none" stroke="#000000" points="182.1069,-324.6 128.1069,-324.6 128.1069,-288.6 182.1069,-288.6 182.1069,-324.6"/>
<text text-anchor="middle" x="155.1069" y="-303.3" font-family="arial" font-size="11.00" fill="#000000">Type</text>
</g>
<!-- Type&#45;&gt;t -->
<g id="edge7" class="edge">
<title>Type&#45;&gt;t</title>
<path fill="none" stroke="#000000" d="M131.3766,-288.5551C119.2611,-279.3422 104.3461,-268.0006 91.2183,-258.018"/>
<polygon fill="#000000" stroke="#000000" points="82.897,-251.6904 93.5809,-254.1613 86.877,-254.7168 90.857,-257.7433 90.857,-257.7433 90.857,-257.7433 86.877,-254.7168 88.1332,-261.3254 82.897,-251.6904 82.897,-251.6904"/>
</g>
<!-- tso -->
<g id="node12" class="node">
<title>tso</title>
<path fill="none" stroke="#0000ff" d="M180.2326,-251.6C180.2326,-251.6 121.9813,-251.6 121.9813,-251.6 115.9813,-251.6 109.9813,-245.6 109.9813,-239.6 109.9813,-239.6 109.9813,-227.6 109.9813,-227.6 109.9813,-221.6 115.9813,-215.6 121.9813,-215.6 121.9813,-215.6 180.2326,-215.6 180.2326,-215.6 186.2326,-215.6 192.2326,-221.6 192.2326,-227.6 192.2326,-227.6 192.2326,-239.6 192.2326,-239.6 192.2326,-245.6 186.2326,-251.6 180.2326,-251.6"/>
<text text-anchor="middle" x="151.1069" y="-230.3" font-family="arial" font-size="11.00" fill="#0000ff">Sing &#39;Opened</text>
</g>
<!-- Type&#45;&gt;tso -->
<g id="edge17" class="edge">
<title>Type&#45;&gt;tso</title>
<path fill="none" stroke="#000000" d="M154.1182,-288.5551C153.6759,-280.4828 153.144,-270.7764 152.6511,-261.7817"/>
<polygon fill="#000000" stroke="#000000" points="152.0982,-251.6904 157.1387,-261.4291 152.3718,-256.6829 152.6454,-261.6754 152.6454,-261.6754 152.6454,-261.6754 152.3718,-256.6829 148.1521,-261.9216 152.0982,-251.6904 152.0982,-251.6904"/>
</g>
<!-- tsc -->
<g id="node13" class="node">
<title>tsc</title>
<path fill="none" stroke="#0000ff" d="M275.8273,-251.6C275.8273,-251.6 222.3865,-251.6 222.3865,-251.6 216.3865,-251.6 210.3865,-245.6 210.3865,-239.6 210.3865,-239.6 210.3865,-227.6 210.3865,-227.6 210.3865,-221.6 216.3865,-215.6 222.3865,-215.6 222.3865,-215.6 275.8273,-215.6 275.8273,-215.6 281.8273,-215.6 287.8273,-221.6 287.8273,-227.6 287.8273,-227.6 287.8273,-239.6 287.8273,-239.6 287.8273,-245.6 281.8273,-251.6 275.8273,-251.6"/>
<text text-anchor="middle" x="249.1069" y="-230.3" font-family="arial" font-size="11.00" fill="#0000ff">Sing &#39;Closed</text>
</g>
<!-- Type&#45;&gt;tsc -->
<g id="edge18" class="edge">
<title>Type&#45;&gt;tsc</title>
<path fill="none" stroke="#000000" d="M178.3429,-288.5551C190.206,-279.3422 204.8102,-268.0006 217.6645,-258.018"/>
<polygon fill="#000000" stroke="#000000" points="225.8125,-251.6904 220.6746,-261.3781 221.8635,-254.7572 217.9144,-257.824 217.9144,-257.824 217.9144,-257.824 221.8635,-254.7572 215.1543,-254.2699 225.8125,-251.6904 225.8125,-251.6904"/>
</g>
<!-- dk -->
<g id="node9" class="node">
<title>dk</title>
<polygon fill="none" stroke="#000000" points="326.2675,-397.6 219.9464,-397.6 219.9464,-361.6 326.2675,-361.6 326.2675,-397.6"/>
<text text-anchor="middle" x="273.1069" y="-376.3" font-family="arial" font-size="11.00" fill="#000000">DoorState &#45;&gt; Type</text>
</g>
<!-- dk&#45;&gt;d -->
<g id="edge8" class="edge">
<title>dk&#45;&gt;d</title>
<path fill="none" stroke="#000000" d="M287.444,-361.5551C294.3455,-352.8686 302.7506,-342.2898 310.3366,-332.742"/>
<polygon fill="#000000" stroke="#000000" points="316.7338,-324.6904 314.0363,-335.3193 313.6234,-328.6052 310.513,-332.52 310.513,-332.52 310.513,-332.52 313.6234,-328.6052 306.9897,-329.7206 316.7338,-324.6904 316.7338,-324.6904"/>
</g>
<!-- ts -->
<g id="node11" class="node">
<title>ts</title>
<path fill="none" stroke="#0000ff" stroke-width="2" d="M274.1267,-324.6C274.1267,-324.6 216.0871,-324.6 216.0871,-324.6 210.0871,-324.6 204.0871,-318.6 204.0871,-312.6 204.0871,-312.6 204.0871,-300.6 204.0871,-300.6 204.0871,-294.6 210.0871,-288.6 216.0871,-288.6 216.0871,-288.6 274.1267,-288.6 274.1267,-288.6 280.1267,-288.6 286.1267,-294.6 286.1267,-300.6 286.1267,-300.6 286.1267,-312.6 286.1267,-312.6 286.1267,-318.6 280.1267,-324.6 274.1267,-324.6"/>
<text text-anchor="middle" x="245.1069" y="-303.3" font-family="arial" font-size="11.00" fill="#0000ff">SDoorState a</text>
</g>
<!-- dk&#45;&gt;ts -->
<g id="edge16" class="edge">
<title>dk&#45;&gt;ts</title>
<path fill="none" stroke="#000000" d="M266.1856,-361.5551C263.0221,-353.3074 259.2042,-343.3536 255.6918,-334.1962"/>
<polygon fill="#000000" stroke="#000000" points="252.0457,-324.6904 259.8285,-332.4155 253.8363,-329.3587 255.627,-334.0271 255.627,-334.0271 255.627,-334.0271 253.8363,-329.3587 251.4254,-335.6387 252.0457,-324.6904 252.0457,-324.6904"/>
</g>
<!-- kinds -->
<g id="node10" class="node">
<title>kinds</title>
<polygon fill="none" stroke="#000000" stroke-dasharray="1,5" points="300.1069,-470.6 246.1069,-470.6 246.1069,-434.6 300.1069,-434.6 300.1069,-470.6"/>
<text text-anchor="middle" x="273.1069" y="-449.3" font-family="arial" font-size="11.00" fill="#000000">kinds</text>
</g>
<!-- kinds&#45;&gt;k -->
<g id="edge10" class="edge">
<title>kinds&#45;&gt;k</title>
<path fill="none" stroke="#000000" stroke-dasharray="1,5" d="M295.1309,-434.5836C307.3498,-424.2201 322.5652,-410.6918 335.1069,-397.6 354.8963,-376.9427 375.2509,-351.5533 389.5909,-332.8462"/>
<polygon fill="#000000" stroke="#000000" points="395.7327,-324.7623 393.2662,-335.4473 392.7079,-328.7436 389.6831,-332.7249 389.6831,-332.7249 389.6831,-332.7249 392.7079,-328.7436 386.0999,-330.0026 395.7327,-324.7623 395.7327,-324.7623"/>
</g>
<!-- kinds&#45;&gt;Type -->
<g id="edge9" class="edge">
<title>kinds&#45;&gt;Type</title>
<path fill="none" stroke="#000000" stroke-dasharray="1,5" d="M249.5062,-434.4651C237.2441,-424.3807 222.4868,-411.1545 211.1069,-397.6 194.4746,-377.7893 179.3466,-352.5613 169.0188,-333.6951"/>
<polygon fill="#000000" stroke="#000000" points="164.2111,-324.7344 172.9043,-331.4187 166.5751,-329.1403 168.939,-333.5462 168.939,-333.5462 168.939,-333.5462 166.5751,-329.1403 164.9737,-335.6738 164.2111,-324.7344 164.2111,-324.7344"/>
</g>
<!-- kinds&#45;&gt;dk -->
<g id="edge11" class="edge">
<title>kinds&#45;&gt;dk</title>
<path fill="none" stroke="#000000" stroke-dasharray="1,5" d="M273.1069,-434.5551C273.1069,-426.4828 273.1069,-416.7764 273.1069,-407.7817"/>
<polygon fill="#000000" stroke="#000000" points="273.1069,-397.6904 277.607,-407.6903 273.107,-402.6904 273.107,-407.6904 273.107,-407.6904 273.107,-407.6904 273.107,-402.6904 268.607,-407.6904 273.1069,-397.6904 273.1069,-397.6904"/>
</g>
<!-- ts&#45;&gt;tso -->
<g id="edge12" class="edge">
<title>ts&#45;&gt;tso</title>
<path fill="none" stroke="#000000" stroke-dasharray="5,2" d="M221.871,-288.5551C210.0078,-279.3422 195.4036,-268.0006 182.5494,-258.018"/>
<polygon fill="#000000" stroke="#000000" points="174.4014,-251.6904 185.0596,-254.2699 178.3504,-254.7572 182.2994,-257.824 182.2994,-257.824 182.2994,-257.824 178.3504,-254.7572 179.5393,-261.3781 174.4014,-251.6904 174.4014,-251.6904"/>
</g>
<!-- ts&#45;&gt;tsc -->
<g id="edge13" class="edge">
<title>ts&#45;&gt;tsc</title>
<path fill="none" stroke="#000000" stroke-dasharray="5,2" d="M246.0957,-288.5551C246.538,-280.4828 247.0699,-270.7764 247.5627,-261.7817"/>
<polygon fill="#000000" stroke="#000000" points="248.1157,-251.6904 252.0617,-261.9216 247.8421,-256.6829 247.5685,-261.6754 247.5685,-261.6754 247.5685,-261.6754 247.8421,-256.6829 243.0752,-261.4291 248.1157,-251.6904 248.1157,-251.6904"/>
</g>
<!-- tso&#45;&gt;so -->
<g id="edge14" class="edge">
<title>tso&#45;&gt;so</title>
<path fill="none" stroke="#000000" d="M156.9762,-215.5519C161.7577,-200.849 168.5897,-179.8406 174.0687,-162.9927"/>
<polygon fill="#000000" stroke="#000000" points="177.2748,-153.1337 178.4616,-164.0351 175.7285,-157.8885 174.1822,-162.6434 174.1822,-162.6434 174.1822,-162.6434 175.7285,-157.8885 169.9028,-161.2517 177.2748,-153.1337 177.2748,-153.1337"/>
</g>
<!-- tsc&#45;&gt;sc -->
<g id="edge15" class="edge">
<title>tsc&#45;&gt;sc</title>
<path fill="none" stroke="#000000" d="M253.8757,-215.5519C257.7607,-200.849 263.3116,-179.8406 267.7633,-162.9927"/>
<polygon fill="#000000" stroke="#000000" points="270.3684,-153.1337 272.1644,-163.9515 269.091,-157.9678 267.8137,-162.8019 267.8137,-162.8019 267.8137,-162.8019 269.091,-157.9678 263.463,-161.6523 270.3684,-153.1337 270.3684,-153.1337"/>
</g>
<!-- so&#45;&gt;o -->
<g id="edge21" class="edge">
<title>so&#45;&gt;o</title>
<path fill="none" stroke="#0000ff" d="M149.8009,-116.1552C124.8473,-101.8865 90.9007,-82.4754 66.2361,-68.3719"/>
<polygon fill="#0000ff" stroke="#0000ff" points="158.5026,-121.131 147.5878,-120.0735 154.1621,-118.649 149.8216,-116.167 149.8216,-116.167 149.8216,-116.167 154.1621,-118.649 152.0554,-112.2605 158.5026,-121.131 158.5026,-121.131"/>
<polygon fill="#0000ff" stroke="#0000ff" points="57.2757,-63.2482 68.1905,-64.3057 61.6162,-65.7302 65.9568,-68.2122 65.9568,-68.2122 65.9568,-68.2122 61.6162,-65.7302 63.723,-72.1186 57.2757,-63.2482 57.2757,-63.2482"/>
<text text-anchor="middle" x="146.2224" y="-89.3" font-family="arial" font-size="11.00" fill="#0000ff">to/fromSing</text>
</g>
<!-- sc&#45;&gt;c -->
<g id="edge22" class="edge">
<title>sc&#45;&gt;c</title>
<path fill="none" stroke="#0000ff" d="M242.6042,-116.489C217.5378,-102.0588 183.0839,-82.2246 158.3416,-67.981"/>
<polygon fill="#0000ff" stroke="#0000ff" points="251.3282,-121.5111 240.4165,-120.4219 246.9949,-119.0166 242.6616,-116.522 242.6616,-116.522 242.6616,-116.522 246.9949,-119.0166 244.9067,-112.622 251.3282,-121.5111 251.3282,-121.5111"/>
<polygon fill="#0000ff" stroke="#0000ff" points="149.3741,-62.8187 160.2858,-63.9079 153.7074,-65.3133 158.0407,-67.8079 158.0407,-67.8079 158.0407,-67.8079 153.7074,-65.3133 155.7956,-71.7078 149.3741,-62.8187 149.3741,-62.8187"/>
</g>
</g>
</svg>
