<?xml version="1.0" encoding="UTF-8" standalone="no"?>
<!DOCTYPE svg PUBLIC "-//W3C//DTD SVG 1.1//EN"
 "http://www.w3.org/Graphics/SVG/1.1/DTD/svg11.dtd">
<!-- Generated by graphviz version 2.40.1 (20161225.0304)
 -->
<!-- Title: DataKinds Pages: 1 -->
<svg width="459pt" height="491pt"
 viewBox="0.00 0.00 459.24 490.60" xmlns="http://www.w3.org/2000/svg" xmlns:xlink="http://www.w3.org/1999/xlink">
<g id="graph0" class="graph" transform="scale(1 1) rotate(0) translate(4 486.6)">
<title>DataKinds</title>
<polygon fill="#ffffff" stroke="transparent" points="-4,4 -4,-486.6 455.235,-486.6 455.235,4 -4,4"/>
<text text-anchor="middle" x="225.6175" y="-31" font-family="monospace" font-size="10.00" fill="#000000">Diagram 1</text>
<text text-anchor="middle" x="225.6175" y="-19" font-family="monospace" font-size="10.00" fill="#000000">$(singletons [d| data DoorState = Opened | Closed |])</text>
<text text-anchor="middle" x="225.6175" y="-7" font-family="monospace" font-size="10.00" fill="#000000">data Door (a :: DoorState) where MkDoor :: Sing a &#45;&gt; Door a</text>
<!-- t -->
<g id="node1" class="node">
<title>t</title>
<path fill="none" stroke="#000000" d="M79.6208,-263.6C79.6208,-263.6 38.593,-263.6 38.593,-263.6 32.593,-263.6 26.593,-257.6 26.593,-251.6 26.593,-251.6 26.593,-239.6 26.593,-239.6 26.593,-233.6 32.593,-227.6 38.593,-227.6 38.593,-227.6 79.6208,-227.6 79.6208,-227.6 85.6208,-227.6 91.6208,-233.6 91.6208,-239.6 91.6208,-239.6 91.6208,-251.6 91.6208,-251.6 91.6208,-257.6 85.6208,-263.6 79.6208,-263.6"/>
<text text-anchor="middle" x="59.1069" y="-242.3" font-family="arial" font-size="11.00" fill="#000000">DoorState</text>
</g>
<!-- o -->
<g id="node2" class="node">
<title>o</title>
<ellipse fill="none" stroke="#000000" cx="34.1069" cy="-62" rx="34.2142" ry="18"/>
<text text-anchor="middle" x="34.1069" y="-58.7" font-family="arial" font-size="11.00" fill="#000000">Opened</text>
</g>
<!-- t&#45;&gt;o -->
<g id="edge1" class="edge">
<title>t&#45;&gt;o</title>
<path fill="none" stroke="#000000" d="M56.6184,-227.3245C52.2383,-195.1564 43.1249,-128.2278 37.9372,-90.1298"/>
<polygon fill="#000000" stroke="#000000" points="36.5854,-80.2016 42.3935,-89.503 37.26,-85.1559 37.9347,-90.1102 37.9347,-90.1102 37.9347,-90.1102 37.26,-85.1559 33.4758,-90.7173 36.5854,-80.2016 36.5854,-80.2016"/>
</g>
<!-- c -->
<g id="node3" class="node">
<title>c</title>
<ellipse fill="none" stroke="#000000" cx="127.1069" cy="-62" rx="31.1452" ry="18"/>
<text text-anchor="middle" x="127.1069" y="-58.7" font-family="arial" font-size="11.00" fill="#000000">Closed</text>
</g>
<!-- t&#45;&gt;c -->
<g id="edge2" class="edge">
<title>t&#45;&gt;c</title>
<path fill="none" stroke="#000000" d="M65.8756,-227.3245C77.9023,-194.8524 103.0478,-126.9597 117.0856,-89.0575"/>
<polygon fill="#000000" stroke="#000000" points="120.5656,-79.6616 121.3123,-90.602 118.829,-84.3504 117.0924,-89.0391 117.0924,-89.0391 117.0924,-89.0391 118.829,-84.3504 112.8725,-87.4762 120.5656,-79.6616 120.5656,-79.6616"/>
</g>
<!-- k -->
<g id="node4" class="node">
<title>k</title>
<polygon fill="none" stroke="#000000" points="441.6208,-336.6 376.593,-336.6 376.593,-300.6 441.6208,-300.6 441.6208,-336.6"/>
<text text-anchor="middle" x="409.1069" y="-315.3" font-family="arial" font-size="11.00" fill="#000000">DoorState</text>
</g>
<!-- to -->
<g id="node5" class="node">
<title>to</title>
<path fill="none" stroke="#000000" d="M351.6699,-263.6C351.6699,-263.6 318.544,-263.6 318.544,-263.6 312.544,-263.6 306.544,-257.6 306.544,-251.6 306.544,-251.6 306.544,-239.6 306.544,-239.6 306.544,-233.6 312.544,-227.6 318.544,-227.6 318.544,-227.6 351.6699,-227.6 351.6699,-227.6 357.6699,-227.6 363.6699,-233.6 363.6699,-239.6 363.6699,-239.6 363.6699,-251.6 363.6699,-251.6 363.6699,-257.6 357.6699,-263.6 351.6699,-263.6"/>
<text text-anchor="middle" x="335.1069" y="-242.3" font-family="arial" font-size="11.00" fill="#000000">&#39;Opened</text>
</g>
<!-- k&#45;&gt;to -->
<g id="edge3" class="edge">
<title>k&#45;&gt;to</title>
<path fill="none" stroke="#000000" d="M390.8148,-300.5551C381.7426,-291.6054 370.634,-280.647 360.7301,-270.8769"/>
<polygon fill="#000000" stroke="#000000" points="353.4451,-263.6904 363.7244,-267.5096 357.0046,-267.2018 360.5641,-270.7132 360.5641,-270.7132 360.5641,-270.7132 357.0046,-267.2018 357.4039,-273.9168 353.4451,-263.6904 353.4451,-263.6904"/>
</g>
<!-- tc -->
<g id="node6" class="node">
<title>tc</title>
<path fill="none" stroke="#000000" d="M424.1069,-263.6C424.1069,-263.6 394.1069,-263.6 394.1069,-263.6 388.1069,-263.6 382.1069,-257.6 382.1069,-251.6 382.1069,-251.6 382.1069,-239.6 382.1069,-239.6 382.1069,-233.6 388.1069,-227.6 394.1069,-227.6 394.1069,-227.6 424.1069,-227.6 424.1069,-227.6 430.1069,-227.6 436.1069,-233.6 436.1069,-239.6 436.1069,-239.6 436.1069,-251.6 436.1069,-251.6 436.1069,-257.6 430.1069,-263.6 424.1069,-263.6"/>
<text text-anchor="middle" x="409.1069" y="-242.3" font-family="arial" font-size="11.00" fill="#000000">&#39;Closed</text>
</g>
<!-- k&#45;&gt;tc -->
<g id="edge4" class="edge">
<title>k&#45;&gt;tc</title>
<path fill="none" stroke="#000000" d="M409.1069,-300.5551C409.1069,-292.4828 409.1069,-282.7764 409.1069,-273.7817"/>
<polygon fill="#000000" stroke="#000000" points="409.1069,-263.6904 413.607,-273.6903 409.107,-268.6904 409.107,-273.6904 409.107,-273.6904 409.107,-273.6904 409.107,-268.6904 404.607,-273.6904 409.1069,-263.6904 409.1069,-263.6904"/>
</g>
<!-- so -->
<g id="node14" class="node">
<title>so</title>
<ellipse fill="none" stroke="#0000ff" cx="183.1069" cy="-147.2" rx="38.7911" ry="18"/>
<text text-anchor="middle" x="183.1069" y="-143.9" font-family="arial" font-size="11.00" fill="#0000ff">SOpened</text>
</g>
<!-- to&#45;&gt;so -->
<g id="edge19" class="edge">
<title>to&#45;&gt;so</title>
<path fill="none" stroke="#0000ff" d="M298.6376,-221.9909C272.9338,-205.3511 238.8703,-183.2994 214.4005,-167.4584"/>
<polygon fill="#0000ff" stroke="#0000ff" points="307.2278,-227.5519 296.3878,-225.8951 303.0305,-224.8347 298.8333,-222.1175 298.8333,-222.1175 298.8333,-222.1175 303.0305,-224.8347 301.2787,-218.34 307.2278,-227.5519 307.2278,-227.5519"/>
<polygon fill="#0000ff" stroke="#0000ff" points="205.8526,-161.9248 216.6926,-163.5817 210.0499,-164.642 214.2471,-167.3592 214.2471,-167.3592 214.2471,-167.3592 210.0499,-164.642 211.8017,-171.1368 205.8526,-161.9248 205.8526,-161.9248"/>
</g>
<!-- sc -->
<g id="node15" class="node">
<title>sc</title>
<ellipse fill="none" stroke="#0000ff" cx="275.1069" cy="-147.2" rx="35.7221" ry="18"/>
<text text-anchor="middle" x="275.1069" y="-143.9" font-family="arial" font-size="11.00" fill="#0000ff">SClosed</text>
</g>
<!-- tc&#45;&gt;sc -->
<g id="edge20" class="edge">
<title>tc&#45;&gt;sc</title>
<path fill="none" stroke="#0000ff" d="M376.3469,-221.5434C354.1814,-205.2666 325.1786,-183.969 303.8992,-168.343"/>
<polygon fill="#0000ff" stroke="#0000ff" points="384.5293,-227.5519 373.8055,-225.2601 380.4991,-224.5925 376.469,-221.633 376.469,-221.633 376.469,-221.633 380.4991,-224.5925 379.1325,-218.0059 384.5293,-227.5519 384.5293,-227.5519"/>
<polygon fill="#0000ff" stroke="#0000ff" points="295.5817,-162.2352 306.3054,-164.527 299.6118,-165.1946 303.6419,-168.1541 303.6419,-168.1541 303.6419,-168.1541 299.6118,-165.1946 300.9784,-171.7812 295.5817,-162.2352 295.5817,-162.2352"/>
<text text-anchor="middle" x="404.171" y="-199.7" font-family="arial" font-size="11.00" fill="#0000ff">type inference</text>
<text text-anchor="middle" x="404.171" y="-186.5" font-family="arial" font-size="11.00" fill="#0000ff">(Sing a &lt;&#45;&gt; Door a)</text>
</g>
<!-- d -->
<g id="node7" class="node">
<title>d</title>
<path fill="none" stroke="#000000" stroke-width="2" d="M346.1069,-336.6C346.1069,-336.6 316.1069,-336.6 316.1069,-336.6 310.1069,-336.6 304.1069,-330.6 304.1069,-324.6 304.1069,-324.6 304.1069,-312.6 304.1069,-312.6 304.1069,-306.6 310.1069,-300.6 316.1069,-300.6 316.1069,-300.6 346.1069,-300.6 346.1069,-300.6 352.1069,-300.6 358.1069,-306.6 358.1069,-312.6 358.1069,-312.6 358.1069,-324.6 358.1069,-324.6 358.1069,-330.6 352.1069,-336.6 346.1069,-336.6"/>
<text text-anchor="middle" x="331.1069" y="-315.3" font-family="arial" font-size="11.00" fill="#000000">Door a</text>
</g>
<!-- d&#45;&gt;to -->
<g id="edge5" class="edge">
<title>d&#45;&gt;to</title>
<path fill="none" stroke="#000000" stroke-dasharray="5,2" d="M332.0957,-300.5551C332.538,-292.4828 333.0699,-282.7764 333.5627,-273.7817"/>
<polygon fill="#000000" stroke="#000000" points="334.1157,-263.6904 338.0617,-273.9216 333.8421,-268.6829 333.5685,-273.6754 333.5685,-273.6754 333.5685,-273.6754 333.8421,-268.6829 329.0752,-273.4291 334.1157,-263.6904 334.1157,-263.6904"/>
</g>
<!-- d&#45;&gt;tc -->
<g id="edge6" class="edge">
<title>d&#45;&gt;tc</title>
<path fill="none" stroke="#000000" stroke-dasharray="5,2" d="M350.3878,-300.5551C360.0442,-291.5177 371.8893,-280.4319 382.4054,-270.5899"/>
<polygon fill="#000000" stroke="#000000" points="389.7775,-263.6904 385.5512,-273.8091 386.1269,-267.107 382.4763,-270.5236 382.4763,-270.5236 382.4763,-270.5236 386.1269,-267.107 379.4013,-267.238 389.7775,-263.6904 389.7775,-263.6904"/>
</g>
<!-- Type -->
<g id="node8" class="node">
<title>Type</title>
<polygon fill="none" stroke="#000000" points="182.1069,-336.6 128.1069,-336.6 128.1069,-300.6 182.1069,-300.6 182.1069,-336.6"/>
<text text-anchor="middle" x="155.1069" y="-315.3" font-family="arial" font-size="11.00" fill="#000000">Type</text>
</g>
<!-- Type&#45;&gt;t -->
<g id="edge7" class="edge">
<title>Type&#45;&gt;t</title>
<path fill="none" stroke="#000000" d="M131.3766,-300.5551C119.2611,-291.3422 104.3461,-280.0006 91.2183,-270.018"/>
<polygon fill="#000000" stroke="#000000" points="82.897,-263.6904 93.5809,-266.1613 86.877,-266.7168 90.857,-269.7433 90.857,-269.7433 90.857,-269.7433 86.877,-266.7168 88.1332,-273.3254 82.897,-263.6904 82.897,-263.6904"/>
</g>
<!-- tso -->
<g id="node12" class="node">
<title>tso</title>
<path fill="none" stroke="#0000ff" d="M180.2326,-263.6C180.2326,-263.6 121.9813,-263.6 121.9813,-263.6 115.9813,-263.6 109.9813,-257.6 109.9813,-251.6 109.9813,-251.6 109.9813,-239.6 109.9813,-239.6 109.9813,-233.6 115.9813,-227.6 121.9813,-227.6 121.9813,-227.6 180.2326,-227.6 180.2326,-227.6 186.2326,-227.6 192.2326,-233.6 192.2326,-239.6 192.2326,-239.6 192.2326,-251.6 192.2326,-251.6 192.2326,-257.6 186.2326,-263.6 180.2326,-263.6"/>
<text text-anchor="middle" x="151.1069" y="-242.3" font-family="arial" font-size="11.00" fill="#0000ff">Sing &#39;Opened</text>
</g>
<!-- Type&#45;&gt;tso -->
<g id="edge17" class="edge">
<title>Type&#45;&gt;tso</title>
<path fill="none" stroke="#000000" d="M154.1182,-300.5551C153.6759,-292.4828 153.144,-282.7764 152.6511,-273.7817"/>
<polygon fill="#000000" stroke="#000000" points="152.0982,-263.6904 157.1387,-273.4291 152.3718,-268.6829 152.6454,-273.6754 152.6454,-273.6754 152.6454,-273.6754 152.3718,-268.6829 148.1521,-273.9216 152.0982,-263.6904 152.0982,-263.6904"/>
</g>
<!-- tsc -->
<g id="node13" class="node">
<title>tsc</title>
<path fill="none" stroke="#0000ff" d="M275.8273,-263.6C275.8273,-263.6 222.3865,-263.6 222.3865,-263.6 216.3865,-263.6 210.3865,-257.6 210.3865,-251.6 210.3865,-251.6 210.3865,-239.6 210.3865,-239.6 210.3865,-233.6 216.3865,-227.6 222.3865,-227.6 222.3865,-227.6 275.8273,-227.6 275.8273,-227.6 281.8273,-227.6 287.8273,-233.6 287.8273,-239.6 287.8273,-239.6 287.8273,-251.6 287.8273,-251.6 287.8273,-257.6 281.8273,-263.6 275.8273,-263.6"/>
<text text-anchor="middle" x="249.1069" y="-242.3" font-family="arial" font-size="11.00" fill="#0000ff">Sing &#39;Closed</text>
</g>
<!-- Type&#45;&gt;tsc -->
<g id="edge18" class="edge">
<title>Type&#45;&gt;tsc</title>
<path fill="none" stroke="#000000" d="M178.3429,-300.5551C190.206,-291.3422 204.8102,-280.0006 217.6645,-270.018"/>
<polygon fill="#000000" stroke="#000000" points="225.8125,-263.6904 220.6746,-273.3781 221.8635,-266.7572 217.9144,-269.824 217.9144,-269.824 217.9144,-269.824 221.8635,-266.7572 215.1543,-266.2699 225.8125,-263.6904 225.8125,-263.6904"/>
</g>
<!-- dk -->
<g id="node9" class="node">
<title>dk</title>
<polygon fill="none" stroke="#000000" points="326.2675,-409.6 219.9464,-409.6 219.9464,-373.6 326.2675,-373.6 326.2675,-409.6"/>
<text text-anchor="middle" x="273.1069" y="-388.3" font-family="arial" font-size="11.00" fill="#000000">DoorState &#45;&gt; Type</text>
</g>
<!-- dk&#45;&gt;d -->
<g id="edge8" class="edge">
<title>dk&#45;&gt;d</title>
<path fill="none" stroke="#000000" d="M287.444,-373.5551C294.3455,-364.8686 302.7506,-354.2898 310.3366,-344.742"/>
<polygon fill="#000000" stroke="#000000" points="316.7338,-336.6904 314.0363,-347.3193 313.6234,-340.6052 310.513,-344.52 310.513,-344.52 310.513,-344.52 313.6234,-340.6052 306.9897,-341.7206 316.7338,-336.6904 316.7338,-336.6904"/>
</g>
<!-- ts -->
<g id="node11" class="node">
<title>ts</title>
<path fill="none" stroke="#0000ff" stroke-width="2" d="M274.1267,-336.6C274.1267,-336.6 216.0871,-336.6 216.0871,-336.6 210.0871,-336.6 204.0871,-330.6 204.0871,-324.6 204.0871,-324.6 204.0871,-312.6 204.0871,-312.6 204.0871,-306.6 210.0871,-300.6 216.0871,-300.6 216.0871,-300.6 274.1267,-300.6 274.1267,-300.6 280.1267,-300.6 286.1267,-306.6 286.1267,-312.6 286.1267,-312.6 286.1267,-324.6 286.1267,-324.6 286.1267,-330.6 280.1267,-336.6 274.1267,-336.6"/>
<text text-anchor="middle" x="245.1069" y="-315.3" font-family="arial" font-size="11.00" fill="#0000ff">SDoorState a</text>
</g>
<!-- dk&#45;&gt;ts -->
<g id="edge16" class="edge">
<title>dk&#45;&gt;ts</title>
<path fill="none" stroke="#000000" d="M266.1856,-373.5551C263.0221,-365.3074 259.2042,-355.3536 255.6918,-346.1962"/>
<polygon fill="#000000" stroke="#000000" points="252.0457,-336.6904 259.8285,-344.4155 253.8363,-341.3587 255.627,-346.0271 255.627,-346.0271 255.627,-346.0271 253.8363,-341.3587 251.4254,-347.6387 252.0457,-336.6904 252.0457,-336.6904"/>
</g>
<!-- kinds -->
<g id="node10" class="node">
<title>kinds</title>
<polygon fill="none" stroke="#000000" stroke-dasharray="1,5" points="300.1069,-482.6 246.1069,-482.6 246.1069,-446.6 300.1069,-446.6 300.1069,-482.6"/>
<text text-anchor="middle" x="273.1069" y="-461.3" font-family="arial" font-size="11.00" fill="#000000">kinds</text>
</g>
<!-- kinds&#45;&gt;k -->
<g id="edge10" class="edge">
<title>kinds&#45;&gt;k</title>
<path fill="none" stroke="#000000" stroke-dasharray="1,5" d="M295.1309,-446.5836C307.3498,-436.2201 322.5652,-422.6918 335.1069,-409.6 354.8963,-388.9427 375.2509,-363.5533 389.5909,-344.8462"/>
<polygon fill="#000000" stroke="#000000" points="395.7327,-336.7623 393.2662,-347.4473 392.7079,-340.7436 389.6831,-344.7249 389.6831,-344.7249 389.6831,-344.7249 392.7079,-340.7436 386.0999,-342.0026 395.7327,-336.7623 395.7327,-336.7623"/>
</g>
<!-- kinds&#45;&gt;Type -->
<g id="edge9" class="edge">
<title>kinds&#45;&gt;Type</title>
<path fill="none" stroke="#000000" stroke-dasharray="1,5" d="M249.5062,-446.4651C237.2441,-436.3807 222.4868,-423.1545 211.1069,-409.6 194.4746,-389.7893 179.3466,-364.5613 169.0188,-345.6951"/>
<polygon fill="#000000" stroke="#000000" points="164.2111,-336.7344 172.9043,-343.4187 166.5751,-341.1403 168.939,-345.5462 168.939,-345.5462 168.939,-345.5462 166.5751,-341.1403 164.9737,-347.6738 164.2111,-336.7344 164.2111,-336.7344"/>
</g>
<!-- kinds&#45;&gt;dk -->
<g id="edge11" class="edge">
<title>kinds&#45;&gt;dk</title>
<path fill="none" stroke="#000000" stroke-dasharray="1,5" d="M273.1069,-446.5551C273.1069,-438.4828 273.1069,-428.7764 273.1069,-419.7817"/>
<polygon fill="#000000" stroke="#000000" points="273.1069,-409.6904 277.607,-419.6903 273.107,-414.6904 273.107,-419.6904 273.107,-419.6904 273.107,-419.6904 273.107,-414.6904 268.607,-419.6904 273.1069,-409.6904 273.1069,-409.6904"/>
</g>
<!-- ts&#45;&gt;tso -->
<g id="edge12" class="edge">
<title>ts&#45;&gt;tso</title>
<path fill="none" stroke="#000000" stroke-dasharray="5,2" d="M221.871,-300.5551C210.0078,-291.3422 195.4036,-280.0006 182.5494,-270.018"/>
<polygon fill="#000000" stroke="#000000" points="174.4014,-263.6904 185.0596,-266.2699 178.3504,-266.7572 182.2994,-269.824 182.2994,-269.824 182.2994,-269.824 178.3504,-266.7572 179.5393,-273.3781 174.4014,-263.6904 174.4014,-263.6904"/>
</g>
<!-- ts&#45;&gt;tsc -->
<g id="edge13" class="edge">
<title>ts&#45;&gt;tsc</title>
<path fill="none" stroke="#000000" stroke-dasharray="5,2" d="M246.0957,-300.5551C246.538,-292.4828 247.0699,-282.7764 247.5627,-273.7817"/>
<polygon fill="#000000" stroke="#000000" points="248.1157,-263.6904 252.0617,-273.9216 247.8421,-268.6829 247.5685,-273.6754 247.5685,-273.6754 247.5685,-273.6754 247.8421,-268.6829 243.0752,-273.4291 248.1157,-263.6904 248.1157,-263.6904"/>
</g>
<!-- tso&#45;&gt;so -->
<g id="edge14" class="edge">
<title>tso&#45;&gt;so</title>
<path fill="none" stroke="#000000" d="M156.9762,-227.5519C161.7577,-212.849 168.5897,-191.8406 174.0687,-174.9927"/>
<polygon fill="#000000" stroke="#000000" points="177.2748,-165.1337 178.4616,-176.0351 175.7285,-169.8885 174.1822,-174.6434 174.1822,-174.6434 174.1822,-174.6434 175.7285,-169.8885 169.9028,-173.2517 177.2748,-165.1337 177.2748,-165.1337"/>
</g>
<!-- tsc&#45;&gt;sc -->
<g id="edge15" class="edge">
<title>tsc&#45;&gt;sc</title>
<path fill="none" stroke="#000000" d="M253.8757,-227.5519C257.7607,-212.849 263.3116,-191.8406 267.7633,-174.9927"/>
<polygon fill="#000000" stroke="#000000" points="270.3684,-165.1337 272.1644,-175.9515 269.091,-169.9678 267.8137,-174.8019 267.8137,-174.8019 267.8137,-174.8019 269.091,-169.9678 263.463,-173.6523 270.3684,-165.1337 270.3684,-165.1337"/>
</g>
<!-- so&#45;&gt;o -->
<g id="edge21" class="edge">
<title>so&#45;&gt;o</title>
<path fill="none" stroke="#0000ff" d="M149.8009,-128.1552C124.8473,-113.8865 90.9007,-94.4754 66.2361,-80.3719"/>
<polygon fill="#0000ff" stroke="#0000ff" points="158.5026,-133.131 147.5878,-132.0735 154.1621,-130.649 149.8216,-128.167 149.8216,-128.167 149.8216,-128.167 154.1621,-130.649 152.0554,-124.2605 158.5026,-133.131 158.5026,-133.131"/>
<polygon fill="#0000ff" stroke="#0000ff" points="57.2757,-75.2482 68.1905,-76.3057 61.6162,-77.7302 65.9568,-80.2122 65.9568,-80.2122 65.9568,-80.2122 61.6162,-77.7302 63.723,-84.1186 57.2757,-75.2482 57.2757,-75.2482"/>
<text text-anchor="middle" x="146.2224" y="-101.3" font-family="arial" font-size="11.00" fill="#0000ff">to/fromSing</text>
</g>
<!-- sc&#45;&gt;c -->
<g id="edge22" class="edge">
<title>sc&#45;&gt;c</title>
<path fill="none" stroke="#0000ff" d="M242.6042,-128.489C217.5378,-114.0588 183.0839,-94.2246 158.3416,-79.981"/>
<polygon fill="#0000ff" stroke="#0000ff" points="251.3282,-133.5111 240.4165,-132.4219 246.9949,-131.0166 242.6616,-128.522 242.6616,-128.522 242.6616,-128.522 246.9949,-131.0166 244.9067,-124.622 251.3282,-133.5111 251.3282,-133.5111"/>
<polygon fill="#0000ff" stroke="#0000ff" points="149.3741,-74.8187 160.2858,-75.9079 153.7074,-77.3133 158.0407,-79.8079 158.0407,-79.8079 158.0407,-79.8079 153.7074,-77.3133 155.7956,-83.7078 149.3741,-74.8187 149.3741,-74.8187"/>
</g>
</g>
</svg>
